<svg width="32" height="32" viewBox="0 0 32 32" fill="none" xmlns="http://www.w3.org/2000/svg">
<g clip-path="url(#clip0_305_5)">
<path d="M22.302 16C22.2074 15.9983 22.1152 16.0299 22.0416 16.0894C21.9679 16.1489 21.9176 16.2325 21.8994 16.3254L21.6052 18.371C21.1406 18.5724 20.6915 18.8203 20.2889 19.0993L18.3687 18.3245C18.1984 18.3245 17.997 18.3245 17.8886 18.5259L16.3401 21.2068C16.2472 21.3772 16.2781 21.5787 16.433 21.7027L18.0745 22.9734C18.0127 23.488 18.0127 24.0083 18.0745 24.523L16.433 25.7937C16.3634 25.8534 16.3163 25.9351 16.2994 26.0253C16.2825 26.1154 16.2968 26.2087 16.3401 26.2896L17.8886 28.9704C17.9816 29.1719 18.1829 29.1719 18.3687 29.1719L20.2889 28.3971C20.6915 28.676 21.1251 28.9394 21.6052 29.1254L21.8994 31.1709C21.9304 31.3568 22.0852 31.4963 22.302 31.4963H25.3992C25.5695 31.4963 25.7398 31.3568 25.7708 31.1709L26.065 29.1254C26.5296 28.9239 26.9477 28.676 27.3658 28.3971L29.2706 29.1719C29.4719 29.1719 29.6732 29.1719 29.7816 28.9704L31.3301 26.2896C31.3734 26.2087 31.3877 26.1154 31.3709 26.0253C31.354 25.9351 31.3068 25.8534 31.2372 25.7937L29.5803 24.523C29.6112 24.2595 29.6422 24.0116 29.6422 23.7482C29.6422 23.4847 29.6267 23.2368 29.5803 22.9734L31.2217 21.7027C31.2913 21.6429 31.3385 21.5612 31.3554 21.4711C31.3723 21.3809 31.3579 21.2877 31.3147 21.2068L29.7661 18.5259C29.6732 18.3245 29.4719 18.3245 29.2706 18.3245L27.3658 19.0993C26.9477 18.8203 26.5296 18.5569 26.0496 18.371L25.7553 16.3254C25.7456 16.2372 25.704 16.1555 25.6385 16.0956C25.573 16.0357 25.4879 16.0017 25.3992 16H22.302ZM23.8506 21.4237C25.1359 21.4237 26.1734 22.462 26.1734 23.7482C26.1734 25.0344 25.1359 26.0726 23.8506 26.0726C22.5498 26.0726 21.5278 25.0344 21.5278 23.7482C21.5278 22.462 22.5653 21.4237 23.8506 21.4237ZM22.302 13.0247V0.503723H0.622192V28.3971H9.91355V22.9734H13.0571C13.4133 17.8596 17.3002 13.7376 22.302 13.0247ZM6.81643 25.2978H3.71931V22.1985H6.81643V25.2978ZM6.81643 19.0993H3.71931V16H6.81643V19.0993ZM6.81643 12.9008H3.71931V9.8015H6.81643V12.9008ZM6.81643 6.70224H3.71931V3.60298H6.81643V6.70224ZM16.1078 3.60298H19.2049V6.70224H16.1078V3.60298ZM16.1078 9.8015H19.2049V12.9008H16.1078V9.8015ZM13.0107 19.0993H9.91355V16H13.0107V19.0993ZM13.0107 12.9008H9.91355V9.8015H13.0107V12.9008ZM9.91355 6.70224V3.60298H13.0107V6.70224H9.91355Z" fill="#00B5D8"/>
</g>
<defs>
<clipPath id="clip0_305_5">
<rect width="32" height="32" fill="white"/>
</clipPath>
</defs>
</svg>
