<svg width="1080" height="1080" viewBox="0 0 1080 1080" fill="none" xmlns="http://www.w3.org/2000/svg">
<path d="M752.695 540C749.501 539.94 746.388 541.009 743.903 543.017C741.418 545.026 739.72 547.846 739.106 550.983L729.176 620.019C713.497 626.818 698.34 635.186 684.752 644.6L619.944 618.45C614.195 618.45 607.401 618.45 603.743 625.249L551.479 715.728C548.343 721.481 549.388 728.28 554.615 732.464L610.014 775.35C607.929 792.721 607.929 810.279 610.014 827.65L554.615 870.536C552.266 872.552 550.675 875.309 550.105 878.352C549.535 881.395 550.019 884.542 551.479 887.272L603.743 977.751C606.878 984.55 613.673 984.55 619.944 984.55L684.752 958.4C698.34 967.814 712.974 976.705 729.176 982.981L739.106 1052.02C740.151 1058.29 745.378 1063 752.695 1063H857.223C862.972 1063 868.721 1058.29 869.766 1052.02L879.696 982.981C895.375 976.182 909.486 967.814 923.598 958.4L987.882 984.55C994.677 984.55 1001.47 984.55 1005.13 977.751L1057.39 887.272C1058.85 884.542 1059.34 881.395 1058.77 878.352C1058.2 875.309 1056.61 872.552 1054.26 870.536L998.335 827.65C999.38 818.759 1000.43 810.391 1000.43 801.5C1000.43 792.609 999.903 784.241 998.335 775.35L1053.73 732.464C1056.08 730.448 1057.67 727.691 1058.24 724.648C1058.81 721.605 1058.33 718.458 1056.87 715.728L1004.61 625.249C1001.47 618.45 994.677 618.45 987.882 618.45L923.598 644.6C909.486 635.186 895.375 626.295 879.173 620.019L869.243 550.983C868.914 548.004 867.512 545.246 865.3 543.225C863.088 541.204 860.217 540.058 857.223 540H752.695ZM804.959 723.05C848.338 723.05 883.355 758.091 883.355 801.5C883.355 844.909 848.338 879.95 804.959 879.95C761.057 879.95 726.563 844.909 726.563 801.5C726.563 758.091 761.58 723.05 804.959 723.05ZM752.695 439.584V17H21V958.4H334.583V775.35H440.679C452.7 602.76 583.882 463.642 752.695 439.584ZM230.056 853.8H125.528V749.2H230.056V853.8ZM230.056 644.6H125.528V540H230.056V644.6ZM230.056 435.4H125.528V330.8H230.056V435.4ZM230.056 226.2H125.528V121.6H230.056V226.2ZM543.639 121.6H648.167V226.2H543.639V121.6ZM543.639 330.8H648.167V435.4H543.639V330.8ZM439.111 644.6H334.583V540H439.111V644.6ZM439.111 435.4H334.583V330.8H439.111V435.4ZM334.583 226.2V121.6H439.111V226.2H334.583Z" fill="#00B5D8"/>
</svg>
