<svg width="581" height="441" viewBox="0 0 581 441" fill="none" xmlns="http://www.w3.org/2000/svg">
<path d="M112.883 122.261L0.682129 197.316L111.199 362.53L223.4 287.475L112.883 122.261Z" fill="#F5F5F5"/>
<path d="M165.42 279.66L164.15 287.54L108.37 279.5L109.64 271.62L165.42 279.66Z" fill="#E0E0E0"/>
<path d="M137.33 251.55L145.33 252.7L136.46 307.62L128.45 306.46L137.33 251.55Z" fill="#E0E0E0"/>
<path d="M85.9997 181.75C86.0797 181.86 74.8397 189.53 60.8897 198.85C46.9397 208.17 35.5697 215.65 35.4897 215.53C35.4097 215.41 46.6497 207.75 60.5997 198.42C74.5497 189.09 85.8697 181.63 85.9997 181.75Z" fill="#E0E0E0"/>
<path d="M127.22 171.39C127.3 171.51 108.6 184.15 85.4601 199.63C62.3201 215.11 43.46 227.56 43.4 227.45C43.34 227.34 62.0001 214.68 85.1701 199.2C108.34 183.72 127.14 171.27 127.22 171.39Z" fill="#E0E0E0"/>
<path d="M135.49 183.75C135.57 183.87 116.87 196.52 93.7301 212C70.5901 227.48 51.7301 239.93 51.6701 239.81C51.6101 239.69 70.2901 227.05 93.4401 211.56C116.59 196.07 135.41 183.63 135.49 183.75Z" fill="#E0E0E0"/>
<path d="M143.76 196.12C143.84 196.24 125.14 208.89 102 224.36C78.86 239.83 60 252.3 60 252.18C60 252.06 78.61 239.41 101.76 223.93C124.91 208.45 143.68 196 143.76 196.12Z" fill="#E0E0E0"/>
<path d="M152 208.49C152.08 208.61 133.38 221.25 110.24 236.73C87.1 252.21 68.24 264.66 68.19 264.54C68.14 264.42 86.83 251.78 110 236.3C133.17 220.82 152 208.37 152 208.49Z" fill="#E0E0E0"/>
<path d="M488.069 232.965L393.838 295.999L486.652 434.748L580.883 371.713L488.069 232.965Z" fill="#F5F5F5"/>
<path d="M532.2 365.18L531.13 371.8L484.28 365.05L485.36 358.43L532.2 365.18Z" fill="#E0E0E0"/>
<path d="M508.61 341.57L515.33 342.54L507.88 388.66L501.15 387.69L508.61 341.57Z" fill="#E0E0E0"/>
<path d="M465.46 283C465.54 283.12 456.11 289.57 444.39 297.4C432.67 305.23 423.11 311.49 423.03 311.4C422.95 311.31 432.39 304.84 444.1 297C455.81 289.16 465.38 282.83 465.46 283Z" fill="#E0E0E0"/>
<path d="M500.11 274.25C500.19 274.37 484.5 285.01 465.11 298C445.72 310.99 429.85 321.45 429.77 321.33C429.69 321.21 445.38 310.57 464.77 297.57C484.16 284.57 500 274.13 500.11 274.25Z" fill="#E0E0E0"/>
<path d="M507.06 284.63C507.14 284.75 491.45 295.39 472.06 308.39C452.67 321.39 436.8 331.83 436.72 331.71C436.64 331.59 452.28 321 471.72 308C491.16 295 507 284.52 507.06 284.63Z" fill="#E0E0E0"/>
<path d="M514 295C514.08 295.12 498.38 305.76 479 318.76C459.62 331.76 443.74 342.2 443.66 342.08C443.58 341.96 459.27 331.33 478.66 318.32C498.05 305.31 513.93 294.9 514 295Z" fill="#E0E0E0"/>
<path d="M521 305.41C521.08 305.53 505.39 316.16 486 329.16C466.61 342.16 450.74 352.6 450.66 352.49C450.58 352.38 466.27 341.73 485.66 328.73C505.05 315.73 520.87 305.29 521 305.41Z" fill="#E0E0E0"/>
<path d="M338.991 128.339L236.174 73.3477L155.2 224.744L258.018 279.735L338.991 128.339Z" fill="#F5F5F5"/>
<path d="M240.42 232.37L233.9 234.6L217.34 188.83L223.87 186.59L240.42 232.37Z" fill="#E0E0E0"/>
<path d="M250.42 199.53L252.8 206.1L207.34 221.67L204.96 215.1L250.42 199.53Z" fill="#E0E0E0"/>
<path d="M282.72 132C282.64 132.15 272.22 126.73 259.43 119.9C246.64 113.07 236.35 107.4 236.43 107.25C236.51 107.1 246.94 112.52 259.73 119.35C272.52 126.18 282.8 131.84 282.72 132Z" fill="#E0E0E0"/>
<path d="M307.4 159.23C307.32 159.38 290.06 150.3 268.85 138.96C247.64 127.62 230.52 118.3 230.6 118.15C230.68 118 247.93 127.07 269.14 138.42C290.35 149.77 307.48 159.08 307.4 159.23Z" fill="#E0E0E0"/>
<path d="M301.34 170.56C301.26 170.71 284 161.64 262.79 150.29C241.58 138.94 224.46 129.63 224.54 129.48C224.62 129.33 241.87 138.41 263.08 149.75C284.29 161.09 301.42 170.41 301.34 170.56Z" fill="#E0E0E0"/>
<path d="M295.28 181.89C295.2 182.04 277.94 172.97 256.73 161.63C235.52 150.29 218.4 141 218.48 140.82C218.56 140.64 235.81 149.74 257.02 161.08C278.23 172.42 295.36 181.74 295.28 181.89Z" fill="#E0E0E0"/>
<path d="M289.22 193.22C289.14 193.37 271.88 184.3 250.67 172.96C229.46 161.62 212.33 152.3 212.42 152.15C212.51 152 229.75 161.07 250.96 172.41C272.17 183.75 289.3 193.07 289.22 193.22Z" fill="#E0E0E0"/>
<path opacity="0.2" d="M289.75 0H287.17V43.98H289.75V0Z" fill="black"/>
<path d="M228.23 97.19H348.69C348.69 97.19 337.57 44 287.55 44C243.06 44 228.23 97.19 228.23 97.19Z" fill="#00B5D8"/>
<path d="M289.75 0H287.17V43.98H289.75V0Z" fill="#00B5D8"/>
<path d="M11.2899 377.2C12.9806 377.322 14.6294 377.783 16.1379 378.556C17.6464 379.33 18.9836 380.399 20.0699 381.7C22.2297 384.318 23.7591 387.397 24.5399 390.7C26.2299 397.02 25.1899 404.49 23.3899 410.78C16.5499 408.33 12.3199 401.03 10.3899 397.19C7.38991 391.13 5.59991 378.33 11.2599 377.19" fill="#00B5D8"/>
<path d="M33.2397 418.45C32.2125 416.857 31.6252 415.021 31.5374 413.127C31.4496 411.234 31.8644 409.351 32.7397 407.67C33.6424 406.005 34.8678 404.536 36.3444 403.35C37.821 402.163 39.5191 401.283 41.3397 400.76C43.0097 400.24 44.9497 400.03 46.3997 401C47.0533 401.494 47.5624 402.155 47.8737 402.913C48.185 403.671 48.2872 404.499 48.1697 405.31C47.9072 406.935 47.2169 408.46 46.1697 409.73C42.8397 414.24 38.7997 417.99 33.1697 418.45" fill="#00B5D8"/>
<path d="M34 439.58C33.8516 439.155 33.7478 438.716 33.69 438.27C33.51 437.33 33.27 436.12 32.98 434.67C32.0824 430.7 31.8325 426.61 32.24 422.56C32.7115 418.49 34.2616 414.62 36.73 411.35C37.4842 410.372 38.3539 409.489 39.32 408.72C39.5826 408.512 39.8563 408.318 40.14 408.14C40.2303 408.065 40.3314 408.004 40.44 407.96C39.1751 409.041 38.0196 410.243 36.99 411.55C34.6518 414.823 33.1795 418.635 32.71 422.63C32.07 427.29 32.86 431.56 33.32 434.63C33.56 436.16 33.76 437.4 33.87 438.26C33.9488 438.696 33.9923 439.137 34 439.58Z" fill="#263238"/>
<path d="M13.4897 386.83C13.6039 386.988 13.698 387.159 13.7697 387.34C13.9497 387.74 14.1897 388.24 14.4697 388.87C15.0797 390.2 15.9297 392.13 16.9597 394.52C19.0197 399.31 21.7798 405.97 24.6598 413.39C27.5398 420.81 29.9898 427.58 31.6598 432.51C32.5198 434.97 33.1898 436.97 33.6598 438.36C33.8698 439.02 34.0298 439.55 34.1598 439.96C34.2311 440.144 34.2814 440.335 34.3097 440.53C34.2083 440.36 34.1278 440.179 34.0698 439.99C33.9198 439.59 33.7297 439.07 33.4797 438.42L31.3697 432.62C29.5797 427.73 27.0798 420.97 24.2098 413.56C21.3398 406.15 18.6197 399.47 16.6397 394.65C15.6397 392.28 14.8698 390.35 14.2998 388.94C14.0398 388.3 13.8297 387.79 13.6697 387.38C13.5946 387.202 13.5344 387.018 13.4897 386.83Z" fill="#263238"/>
<path d="M25.8699 425.6C23.8122 422.174 20.9687 419.287 17.5745 417.178C14.1802 415.069 10.3327 413.798 6.34989 413.47C4.34989 413.33 1.88989 413.67 0.989888 415.47C0.0898878 417.27 1.28989 419.47 2.66989 420.93C5.60195 423.997 9.37644 426.128 13.5176 427.053C17.6587 427.979 21.9811 427.657 25.9399 426.13" fill="#00B5D8"/>
<path d="M9.42973 418.89C9.85371 418.869 10.2787 418.886 10.6997 418.94C11.1927 418.967 11.6837 419.023 12.1697 419.11C12.7397 419.22 13.4097 419.28 14.1097 419.48C14.8922 419.646 15.6636 419.859 16.4197 420.12C17.2957 420.401 18.1539 420.735 18.9897 421.12C20.9122 421.981 22.7305 423.058 24.4097 424.33C26.0695 425.632 27.5729 427.122 28.8897 428.77C29.4584 429.487 29.9827 430.239 30.4597 431.02C30.8909 431.695 31.2848 432.392 31.6397 433.11C31.9402 433.694 32.2073 434.295 32.4397 434.91C32.6402 435.365 32.8106 435.833 32.9497 436.31C33.0978 436.709 33.2083 437.121 33.2797 437.54C33.1697 437.54 32.6897 435.82 31.3397 433.26C30.9721 432.572 30.5682 431.905 30.1297 431.26C29.6424 430.502 29.115 429.771 28.5497 429.07C25.9341 425.838 22.5986 423.263 18.8097 421.55C17.9397 421.17 17.1097 420.81 16.2997 420.55C15.5561 420.279 14.7983 420.049 14.0297 419.86C11.2297 419.09 9.41973 419 9.42973 418.89Z" fill="#263238"/>
<path d="M192 234.54L156.6 416.34L152 440.14L388 439C398.6 438.95 408 429.54 411.39 415.56L453.25 243.93C455.84 233.32 450.16 222.28 442.12 222.29L203.2 222.54C198 222.53 193.34 227.45 192 234.54Z" fill="#00B5D8"/>
<g opacity="0.5">
<path d="M192 234.54L156.6 416.34L152 440.14L388 439C398.6 438.95 408 429.54 411.39 415.56L453.25 243.93C455.84 233.32 450.16 222.28 442.12 222.29L203.2 222.54C198 222.53 193.34 227.45 192 234.54Z" fill="black"/>
</g>
<path d="M365.39 404L340.39 202.59C339.39 194.34 332.8 188.18 325.03 188.21L270.23 188.38C268.193 188.403 266.183 188.84 264.321 189.666C262.459 190.491 260.785 191.687 259.4 193.18L233.4 220.85L80.9999 221.67C71.6899 221.72 64.5299 230.54 65.7599 240.44L88.9699 426.59C89.9699 434.83 96.5599 440.98 104.31 440.97L369.96 440.44C399.54 441.05 402.37 432.32 402.37 432.32C368.41 439.83 365.39 404.05 365.39 404Z" fill="#00B5D8"/>
<g opacity="0.5">
<path d="M250.84 363.72L241.88 373.34L172.88 311.26L181.84 301.64L250.84 363.72Z" fill="white"/>
<path d="M238.13 299.51L248.03 308.42L185.6 375.47L175.69 366.56L238.13 299.51Z" fill="white"/>
</g>
<path d="M388.198 184.289C387.874 184.152 387.596 183.927 387.396 183.638C387.196 183.349 387.082 183.01 387.068 182.659L386.668 173.379C386.654 173.09 386.707 172.803 386.823 172.538C386.939 172.274 387.116 172.041 387.338 171.856C387.56 171.672 387.822 171.542 388.103 171.476C388.384 171.411 388.677 171.412 388.958 171.479C389.732 171.646 390.532 171.653 391.31 171.5C392.087 171.347 392.825 171.037 393.478 170.589C394.079 170.208 394.596 169.708 394.997 169.12C395.398 168.532 395.674 167.868 395.808 167.169C395.898 166.461 395.846 165.742 395.653 165.055C395.461 164.368 395.133 163.727 394.688 163.169C394.219 162.534 393.63 161.998 392.954 161.591C392.278 161.185 391.528 160.915 390.748 160.799C389.174 160.711 387.617 161.157 386.329 162.065C385.04 162.972 384.096 164.288 383.648 165.799C383.498 166.257 383.178 166.639 382.754 166.867C382.329 167.094 381.833 167.149 381.369 167.02C380.905 166.892 380.509 166.589 380.263 166.175C380.017 165.761 379.94 165.268 380.048 164.799C380.728 162.422 382.206 160.352 384.233 158.937C386.26 157.522 388.712 156.848 391.178 157.029C392.461 157.2 393.697 157.627 394.812 158.285C395.927 158.943 396.898 159.818 397.668 160.859C398.417 161.823 398.965 162.928 399.279 164.108C399.593 165.288 399.668 166.519 399.498 167.729C399.27 168.936 398.798 170.085 398.11 171.103C397.422 172.121 396.533 172.987 395.498 173.649C393.997 174.659 392.245 175.23 390.438 175.299L390.748 182.459C390.759 182.773 390.691 183.086 390.55 183.367C390.409 183.648 390.199 183.889 389.939 184.068C389.68 184.246 389.38 184.357 389.067 184.388C388.754 184.42 388.437 184.372 388.148 184.249L388.198 184.289Z" fill="#00B5D8"/>
<path d="M390.938 188.089C390.959 188.391 390.89 188.692 390.739 188.955C390.589 189.218 390.364 189.43 390.093 189.565C389.822 189.7 389.517 189.751 389.217 189.713C388.917 189.674 388.635 189.548 388.406 189.349C388.178 189.15 388.014 188.888 387.935 188.596C387.855 188.304 387.865 187.994 387.961 187.708C388.058 187.421 388.237 187.169 388.477 186.984C388.716 186.799 389.006 186.689 389.308 186.669C389.508 186.654 389.71 186.679 389.9 186.742C390.091 186.806 390.267 186.906 390.419 187.038C390.571 187.171 390.695 187.331 390.784 187.512C390.873 187.692 390.925 187.888 390.938 188.089Z" fill="white"/>
<path d="M423.23 171.542C423.187 171.344 423.157 171.144 423.14 170.942C423.14 170.502 423.03 169.942 422.95 169.152C422.852 168.182 422.688 167.22 422.46 166.272C422.33 165.712 422.26 165.092 422.06 164.462C421.86 163.832 421.66 163.152 421.44 162.462C420.282 159.043 418.595 155.827 416.44 152.932C413.616 149.183 410.035 146.069 405.93 143.792C403.594 142.475 401.105 141.447 398.52 140.732C395.73 139.992 392.856 139.616 389.97 139.612C388.45 139.588 386.929 139.668 385.42 139.852C384.65 139.932 383.89 140.132 383.12 140.262C382.341 140.395 381.573 140.583 380.82 140.822C377.668 141.703 374.67 143.062 371.93 144.852C365.838 148.803 361.198 154.63 358.71 161.452C357.371 165.106 356.693 168.97 356.71 172.862C356.669 176.871 357.378 180.853 358.8 184.602L359.25 185.742L359.31 185.892L359.25 186.042C356.74 191.812 354.25 197.482 351.9 202.972L351.48 202.492L366.48 196.742L366.66 196.672L366.81 196.812C370.778 200.657 375.636 203.46 380.95 204.972C385.491 206.222 390.245 206.495 394.899 205.773C399.554 205.051 404.002 203.35 407.95 200.782C411.184 198.661 414.035 196.007 416.38 192.932C419.779 188.444 421.982 183.165 422.78 177.592C422.9 176.592 423 175.752 423.09 174.992C423.18 174.232 423.09 173.612 423.14 173.082C423.19 172.552 423.14 172.202 423.14 171.912C423.09 171.904 423.045 171.878 423.014 171.839C422.982 171.799 422.967 171.75 422.971 171.699C422.974 171.649 422.997 171.602 423.034 171.568C423.071 171.533 423.12 171.514 423.17 171.514C423.221 171.514 423.269 171.533 423.306 171.568C423.343 171.602 423.366 171.649 423.37 171.699C423.373 171.75 423.358 171.799 423.327 171.839C423.295 171.878 423.25 171.904 423.2 171.912C423.2 172.202 423.2 172.592 423.2 173.082C423.2 173.572 423.2 174.252 423.2 175.012C423.2 175.772 423.03 176.642 422.93 177.632C422.601 180.037 422.028 182.403 421.22 184.692C420.075 187.715 418.535 190.573 416.64 193.192C414.285 196.322 411.414 199.027 408.15 201.192C404.153 203.824 399.642 205.575 394.916 206.33C390.191 207.086 385.358 206.827 380.74 205.572C375.362 204.045 370.443 201.214 366.42 197.332L366.75 197.402L351.75 203.182L351 203.472L351.33 202.702C353.71 197.212 356.17 191.552 358.67 185.772V186.062L358.21 184.892C356.751 181.062 356.025 176.991 356.07 172.892C356.039 168.917 356.716 164.969 358.07 161.232C360.611 154.274 365.355 148.337 371.58 144.322C374.389 142.49 377.466 141.107 380.7 140.222C381.465 139.98 382.247 139.796 383.04 139.672C383.82 139.532 384.59 139.332 385.37 139.262C386.899 139.072 388.439 138.985 389.98 139.002C392.913 139.014 395.831 139.411 398.66 140.182C401.28 140.926 403.801 141.98 406.17 143.322C410.316 145.655 413.919 148.842 416.74 152.672C418.889 155.615 420.553 158.883 421.67 162.352C421.88 163.072 422.08 163.762 422.26 164.352C422.419 164.955 422.546 165.566 422.64 166.182C422.855 167.136 422.995 168.106 423.06 169.082C423.12 169.852 423.16 170.442 423.19 170.882C423.232 171.099 423.246 171.321 423.23 171.542Z" fill="white"/>
</svg>
