<svg width="657" height="437" viewBox="0 0 657 437" fill="none" xmlns="http://www.w3.org/2000/svg">
<path d="M577.979 60.4725C578.795 40.0488 565.406 22.9301 548.073 22.237C530.739 21.5438 516.026 37.5386 515.209 57.9624C514.392 78.3861 527.781 95.5047 545.115 96.1978C562.448 96.891 577.162 80.8962 577.979 60.4725Z" fill="#EBEBEB"/>
<path d="M568.431 60.2467C567.541 78.8467 555.131 93.6467 539.821 95.4567C541.461 95.8556 543.135 96.0967 544.821 96.1767C562.151 97.0667 576.991 81.2367 577.971 60.8167C578.951 40.3967 565.701 23.1367 548.371 22.2467C546.859 22.1711 545.344 22.2213 543.841 22.3967C558.631 25.9867 569.311 41.8367 568.431 60.2467Z" fill="#E0E0E0"/>
<path d="M323.197 422.29C343.534 420.3 359.238 410.688 358.273 400.821C357.307 390.955 340.037 384.57 319.7 386.561C299.363 388.551 283.659 398.163 284.624 408.03C285.59 417.896 302.86 424.281 323.197 422.29Z" fill="#EBEBEB"/>
<path d="M321.791 416.897C303.231 418.367 287.791 412.897 285.051 404.367C284.758 405.309 284.617 406.291 284.631 407.277C284.801 417.217 301.431 423.977 321.791 422.367C342.151 420.757 358.531 411.417 358.361 401.477C358.345 400.607 358.2 399.744 357.931 398.917C355.241 407.727 340.131 415.477 321.791 416.897Z" fill="#E0E0E0"/>
<path d="M61.2705 367.775C71.6223 359.105 71.7344 342.191 61.521 329.997C51.3076 317.804 34.6363 314.948 24.2845 323.619C13.9328 332.29 13.8206 349.203 24.034 361.397C34.2474 373.59 50.9188 376.446 61.2705 367.775Z" fill="#EBEBEB"/>
<path d="M29.7911 356.697C39.1911 367.697 53.8712 370.957 64.1612 364.787C63.3397 365.809 62.4258 366.753 61.4311 367.607C51.1811 376.387 34.5112 373.697 24.2012 361.607C13.8912 349.517 13.8412 332.557 24.0912 323.777C24.9883 323.011 25.9483 322.322 26.9611 321.717C19.5711 330.897 20.5211 345.777 29.7911 356.697Z" fill="#E0E0E0"/>
<path d="M25.9526 221.247C26.1046 210.877 20.4798 202.385 13.3893 202.281C6.29868 202.177 0.427374 210.5 0.275319 220.871C0.123265 231.242 5.74804 239.733 12.8386 239.837C19.9292 239.941 25.8005 231.618 25.9526 221.247Z" fill="#EBEBEB"/>
<path d="M4.18109 220.757C3.97109 230.207 8.58109 238.177 14.7611 239.667C14.1036 239.803 13.4325 239.864 12.7611 239.847C5.67109 239.637 0.101093 231.057 0.331093 220.687C0.561093 210.317 6.48109 202.077 13.5711 202.287C14.1916 202.304 14.8085 202.388 15.4111 202.537C9.22109 203.787 4.38109 211.407 4.18109 220.757Z" fill="#E0E0E0"/>
<path d="M615.401 305.287C610.031 315.427 612.661 327.337 621.291 331.867C629.921 336.397 641.291 331.867 646.641 321.717C651.991 311.567 649.381 299.667 640.761 295.127C632.141 290.587 620.791 295.137 615.401 305.287Z" fill="#EBEBEB"/>
<path d="M641.881 319.267C646.781 310.017 645.021 299.267 638.141 294.047C639.045 294.326 639.922 294.688 640.761 295.127C649.381 299.667 652.021 311.567 646.641 321.717C641.261 331.867 629.911 336.407 621.291 331.897C620.536 331.503 619.817 331.044 619.141 330.527C627.321 333.007 637.031 328.417 641.881 319.267Z" fill="#E0E0E0"/>
<path d="M164.684 58.8367C169.949 43.8276 163.888 28.0368 151.146 23.5671C138.403 19.0974 123.806 27.6412 118.541 42.6504C113.276 57.6595 119.337 73.4503 132.08 77.92C144.822 82.3898 159.419 73.8459 164.684 58.8367Z" fill="#EBEBEB"/>
<path d="M123.691 44.2967C119.001 58.0067 123.691 72.2967 134.291 77.9667C132.996 77.7833 131.721 77.482 130.481 77.0667C117.691 72.7367 111.481 57.0667 116.641 41.9767C121.801 26.8867 136.321 18.2367 149.111 22.5567C150.226 22.9404 151.31 23.4119 152.351 23.9667C140.601 22.3167 128.331 30.7167 123.691 44.2967Z" fill="#E0E0E0"/>
<path d="M475.301 49.4267L479.511 51.9267C479.635 52.0035 479.735 52.1121 479.802 52.2412C479.87 52.3704 479.901 52.5152 479.892 52.6605C479.884 52.8058 479.837 52.9462 479.756 53.0669C479.675 53.1877 479.562 53.2843 479.431 53.3467L474.971 55.5767C474.831 55.6468 474.714 55.7541 474.631 55.8867L472.021 60.1467C471.951 60.2739 471.848 60.38 471.723 60.4539C471.599 60.5279 471.456 60.5668 471.311 60.5668C471.166 60.5668 471.023 60.5279 470.898 60.4539C470.774 60.38 470.671 60.2739 470.601 60.1467L468.471 55.7467C468.404 55.6078 468.295 55.4927 468.161 55.4167L463.961 52.8967C463.837 52.82 463.737 52.7113 463.669 52.5822C463.602 52.4531 463.571 52.3083 463.579 52.163C463.588 52.0177 463.635 51.8773 463.716 51.7565C463.797 51.6357 463.909 51.5391 464.041 51.4767L468.501 49.2467C468.641 49.1766 468.758 49.0693 468.841 48.9367L471.441 44.6867C471.512 44.5598 471.616 44.4541 471.742 44.3805C471.867 44.307 472.01 44.2682 472.156 44.2682C472.302 44.2682 472.445 44.307 472.57 44.3805C472.696 44.4541 472.8 44.5598 472.871 44.6867L475.001 49.0867C475.067 49.2257 475.171 49.3434 475.301 49.4267Z" fill="#E0E0E0"/>
<path d="M68.4108 411.307L72.6208 413.807C72.7444 413.883 72.8451 413.992 72.9122 414.121C72.9794 414.25 73.0105 414.395 73.0023 414.54C72.9941 414.686 72.9469 414.826 72.8657 414.947C72.7845 415.068 72.6723 415.164 72.5408 415.227L68.0808 417.457C67.9411 417.527 67.8235 417.634 67.7408 417.767L65.1308 422.027C65.0566 422.152 64.9501 422.254 64.8226 422.324C64.6951 422.393 64.5512 422.428 64.406 422.422C64.2608 422.417 64.1196 422.373 63.9973 422.295C63.875 422.216 63.776 422.107 63.7108 421.977L61.5808 417.577C61.5105 417.44 61.403 417.325 61.2708 417.247L57.0708 414.747C56.9471 414.67 56.8465 414.561 56.7793 414.432C56.7122 414.303 56.6811 414.158 56.6893 414.013C56.6975 413.868 56.7446 413.727 56.8258 413.607C56.9071 413.486 57.0193 413.389 57.1508 413.327L61.6108 411.087C61.7527 411.02 61.8712 410.912 61.9508 410.777L64.5508 406.527C64.6206 406.4 64.7234 406.293 64.8483 406.22C64.9732 406.146 65.1157 406.107 65.2608 406.107C65.4059 406.107 65.5484 406.146 65.6733 406.22C65.7982 406.293 65.9009 406.4 65.9708 406.527L68.1108 410.937C68.1703 411.088 68.2751 411.217 68.4108 411.307Z" fill="#E0E0E0"/>
<path d="M439.551 408.337L443.761 410.837C443.885 410.913 443.985 411.022 444.052 411.151C444.12 411.28 444.151 411.425 444.142 411.57C444.134 411.716 444.087 411.856 444.006 411.977C443.925 412.098 443.812 412.194 443.681 412.257L439.221 414.497C439.079 414.564 438.961 414.672 438.881 414.807L436.271 419.057C436.201 419.184 436.098 419.29 435.973 419.364C435.849 419.438 435.706 419.477 435.561 419.477C435.416 419.477 435.273 419.438 435.148 419.364C435.024 419.29 434.921 419.184 434.851 419.057L432.721 414.647C432.651 414.51 432.543 414.395 432.411 414.317L428.211 411.817C428.087 411.74 427.987 411.631 427.919 411.502C427.852 411.373 427.821 411.228 427.829 411.083C427.838 410.938 427.885 410.797 427.966 410.677C428.047 410.556 428.159 410.459 428.291 410.397L432.751 408.167C432.891 408.097 433.008 407.989 433.091 407.857L435.691 403.597C435.762 403.47 435.866 403.364 435.992 403.291C436.117 403.217 436.26 403.178 436.406 403.178C436.552 403.178 436.695 403.217 436.82 403.291C436.946 403.364 437.05 403.47 437.121 403.597L439.251 407.997C439.316 408.137 439.42 408.255 439.551 408.337Z" fill="#E0E0E0"/>
<path d="M622.711 404.727L626.911 407.237C627.035 407.311 627.137 407.418 627.206 407.546C627.274 407.674 627.306 407.818 627.299 407.963C627.292 408.108 627.245 408.248 627.165 408.368C627.084 408.489 626.972 408.585 626.841 408.647L622.371 410.897C622.231 410.966 622.113 411.074 622.031 411.207L619.431 415.457C619.361 415.584 619.258 415.69 619.134 415.764C619.009 415.838 618.866 415.877 618.721 415.877C618.576 415.877 618.434 415.838 618.309 415.764C618.184 415.69 618.081 415.584 618.011 415.457L615.871 411.057C615.808 410.916 615.703 410.797 615.571 410.717L611.371 408.217C611.247 408.141 611.146 408.033 611.078 407.904C611.01 407.776 610.978 407.631 610.985 407.486C610.992 407.341 611.038 407.2 611.118 407.079C611.199 406.958 611.31 406.86 611.441 406.797L615.901 404.567C616.041 404.497 616.158 404.389 616.241 404.257L618.851 399.997C618.925 399.872 619.032 399.769 619.159 399.7C619.287 399.63 619.431 399.596 619.576 399.601C619.721 399.606 619.862 399.65 619.985 399.729C620.107 399.807 620.206 399.917 620.271 400.047L622.411 404.447C622.483 404.566 622.587 404.664 622.711 404.727Z" fill="#E0E0E0"/>
<path d="M174.001 97.8967L178.201 100.397C178.325 100.473 178.426 100.581 178.494 100.709C178.562 100.838 178.594 100.982 178.587 101.127C178.58 101.273 178.534 101.413 178.454 101.535C178.373 101.656 178.262 101.753 178.131 101.817L173.661 104.057C173.521 104.126 173.403 104.234 173.321 104.367L170.721 108.617C170.651 108.744 170.548 108.85 170.424 108.924C170.299 108.998 170.156 109.037 170.011 109.037C169.866 109.037 169.724 108.998 169.599 108.924C169.474 108.85 169.371 108.744 169.301 108.617L167.161 104.207C167.095 104.07 166.991 103.956 166.861 103.877L162.661 101.377C162.537 101.301 162.436 101.193 162.368 101.064C162.3 100.936 162.268 100.791 162.275 100.646C162.282 100.501 162.328 100.36 162.408 100.239C162.489 100.118 162.6 100.02 162.731 99.9567L167.201 97.7267C167.336 97.6536 167.45 97.5468 167.531 97.4167L170.141 93.1567C170.211 93.0295 170.314 92.9234 170.439 92.8495C170.564 92.7756 170.706 92.7366 170.851 92.7366C170.996 92.7366 171.139 92.7756 171.264 92.8495C171.388 92.9234 171.491 93.0295 171.561 93.1567L173.701 97.5567C173.763 97.6987 173.868 97.8176 174.001 97.8967Z" fill="#E0E0E0"/>
<path d="M200.851 13.4267L205.051 15.9267C205.175 16.0035 205.275 16.1121 205.342 16.2412C205.41 16.3704 205.441 16.5152 205.432 16.6605C205.424 16.8058 205.377 16.9462 205.296 17.0669C205.215 17.1877 205.102 17.2843 204.971 17.3467L200.511 19.5867C200.369 19.6535 200.251 19.7616 200.171 19.8967L197.571 24.1467C197.5 24.2737 197.396 24.3794 197.27 24.4529C197.145 24.5265 197.002 24.5653 196.856 24.5653C196.71 24.5653 196.567 24.5265 196.442 24.4529C196.316 24.3794 196.212 24.2737 196.141 24.1467L194.011 19.7367C193.942 19.6023 193.838 19.4884 193.711 19.4067L189.501 16.8967C189.377 16.82 189.277 16.7113 189.21 16.5822C189.142 16.4531 189.111 16.3083 189.119 16.163C189.128 16.0177 189.175 15.8773 189.256 15.7565C189.337 15.6357 189.449 15.5391 189.581 15.4767L194.041 13.2467C194.181 13.1766 194.298 13.0693 194.381 12.9367L196.991 8.67672C197.061 8.54951 197.164 8.4434 197.288 8.36949C197.413 8.29558 197.556 8.25659 197.701 8.25659C197.846 8.25659 197.989 8.29558 198.113 8.36949C198.238 8.4434 198.341 8.54951 198.411 8.67672L200.541 13.0767C200.605 13.2231 200.713 13.3455 200.851 13.4267Z" fill="#E0E0E0"/>
<path d="M64.6708 50.2167L66.7908 51.4867C66.8555 51.522 66.9095 51.574 66.9472 51.6374C66.9848 51.7007 67.0046 51.773 67.0046 51.8467C67.0046 51.9204 66.9848 51.9927 66.9472 52.0561C66.9095 52.1194 66.8555 52.1715 66.7908 52.2067L64.5308 53.3467C64.4612 53.3797 64.4023 53.4317 64.3608 53.4967L63.0408 55.6567C63.0042 55.7212 62.9511 55.7748 62.8869 55.812C62.8228 55.8493 62.75 55.8689 62.6758 55.8689C62.6017 55.8689 62.5288 55.8493 62.4647 55.812C62.4006 55.7748 62.3475 55.7212 62.3108 55.6567L61.2308 53.4267C61.1978 53.3571 61.1458 53.2982 61.0808 53.2567L58.9408 51.9867C58.8761 51.9515 58.8222 51.8994 58.7845 51.8361C58.7469 51.7727 58.7271 51.7004 58.7271 51.6267C58.7271 51.553 58.7469 51.4807 58.7845 51.4174C58.8222 51.354 58.8761 51.302 58.9408 51.2667L61.2108 50.1267C61.2805 50.0937 61.3394 50.0417 61.3808 49.9767L62.7008 47.8167C62.7361 47.752 62.7881 47.698 62.8515 47.6604C62.9148 47.6228 62.9872 47.6029 63.0608 47.6029C63.1345 47.6029 63.2068 47.6228 63.2702 47.6604C63.3335 47.698 63.3856 47.752 63.4208 47.8167L64.5108 50.0467C64.5431 50.12 64.5996 50.18 64.6708 50.2167Z" fill="#E0E0E0"/>
<path d="M302.481 37.8967L304.611 39.1667C304.676 39.202 304.73 39.254 304.767 39.3174C304.805 39.3807 304.825 39.453 304.825 39.5267C304.825 39.6004 304.805 39.6727 304.767 39.7361C304.73 39.7994 304.676 39.8515 304.611 39.8867L302.351 41.0167C302.279 41.0503 302.219 41.1064 302.181 41.1767L300.791 43.3367C300.756 43.4014 300.704 43.4554 300.64 43.493C300.577 43.5306 300.505 43.5505 300.431 43.5505C300.357 43.5505 300.285 43.5306 300.222 43.493C300.158 43.4554 300.106 43.4014 300.071 43.3367L298.991 41.1067C298.958 41.0371 298.906 40.9782 298.841 40.9367L296.701 39.6667C296.636 39.6314 296.582 39.5794 296.545 39.5161C296.507 39.4527 296.487 39.3804 296.487 39.3067C296.487 39.233 296.507 39.1607 296.545 39.0974C296.582 39.034 296.636 38.982 296.701 38.9467L298.971 37.8167C299.041 37.7797 299.1 37.7244 299.141 37.6567L300.461 35.4967C300.496 35.432 300.548 35.378 300.612 35.3404C300.675 35.3028 300.747 35.2829 300.821 35.2829C300.895 35.2829 300.967 35.3028 301.03 35.3404C301.094 35.378 301.146 35.432 301.181 35.4967L302.261 37.7367C302.316 37.8119 302.393 37.868 302.481 37.8967Z" fill="#E0E0E0"/>
<path d="M500.301 23.8967L502.441 25.1667C502.505 25.202 502.559 25.254 502.597 25.3174C502.635 25.3807 502.654 25.4531 502.654 25.5267C502.654 25.6004 502.635 25.6727 502.597 25.7361C502.559 25.7994 502.505 25.8515 502.441 25.8867L500.171 27.0167C500.101 27.0538 500.042 27.1091 500.001 27.1767L498.681 29.3367C498.645 29.4014 498.593 29.4554 498.53 29.493C498.467 29.5307 498.394 29.5505 498.321 29.5505C498.247 29.5505 498.175 29.5307 498.111 29.493C498.048 29.4554 497.996 29.4014 497.961 29.3367L496.881 27.0967C496.844 27.0267 496.788 26.968 496.721 26.9267L494.591 25.6567C494.526 25.6215 494.472 25.5694 494.434 25.5061C494.397 25.4427 494.377 25.3704 494.377 25.2967C494.377 25.2231 494.397 25.1507 494.434 25.0874C494.472 25.024 494.526 24.972 494.591 24.9367L496.851 23.8067C496.923 23.7731 496.983 23.717 497.021 23.6467L498.351 21.4867C498.386 21.422 498.438 21.368 498.501 21.3304C498.565 21.2928 498.637 21.2729 498.711 21.2729C498.784 21.2729 498.857 21.2928 498.92 21.3304C498.983 21.368 499.035 21.422 499.071 21.4867L500.151 23.7167C500.182 23.79 500.234 23.8526 500.301 23.8967Z" fill="#E0E0E0"/>
<path d="M636.921 30.7967L639.051 32.0667C639.116 32.102 639.17 32.154 639.207 32.2174C639.245 32.2807 639.265 32.353 639.265 32.4267C639.265 32.5004 639.245 32.5727 639.207 32.6361C639.17 32.6994 639.116 32.7514 639.051 32.7867L636.791 33.8967C636.721 33.9338 636.662 33.989 636.621 34.0567L635.301 36.2167C635.264 36.2812 635.211 36.3347 635.147 36.372C635.083 36.4093 635.01 36.4289 634.936 36.4289C634.862 36.4289 634.789 36.4093 634.725 36.372C634.661 36.3347 634.608 36.2812 634.571 36.2167L633.491 33.9767C633.458 33.9071 633.406 33.8482 633.341 33.8067L631.201 32.5367C631.136 32.5014 631.082 32.4494 631.045 32.3861C631.007 32.3227 630.987 32.2504 630.987 32.1767C630.987 32.103 631.007 32.0307 631.045 31.9674C631.082 31.904 631.136 31.852 631.201 31.8167L633.471 30.6867C633.544 30.6531 633.603 30.597 633.641 30.5267L634.961 28.3667C634.996 28.302 635.048 28.248 635.112 28.2104C635.175 28.1728 635.247 28.1529 635.321 28.1529C635.395 28.1529 635.467 28.1728 635.53 28.2104C635.594 28.248 635.646 28.302 635.681 28.3667L636.791 30.6267C636.816 30.6956 636.861 30.755 636.921 30.7967Z" fill="#E0E0E0"/>
<path d="M392.731 429.727L395.231 431.187C395.306 431.23 395.368 431.292 395.411 431.366C395.454 431.441 395.477 431.525 395.477 431.612C395.477 431.698 395.454 431.783 395.411 431.857C395.368 431.932 395.306 431.994 395.231 432.037L392.601 433.377C392.519 433.421 392.449 433.487 392.401 433.567L390.881 436.097C390.838 436.172 390.776 436.234 390.702 436.277C390.627 436.32 390.542 436.343 390.456 436.343C390.37 436.343 390.285 436.32 390.211 436.277C390.136 436.234 390.074 436.172 390.031 436.097L388.751 433.497C388.707 433.42 388.646 433.355 388.571 433.307L386.061 431.847C385.986 431.805 385.924 431.744 385.88 431.671C385.836 431.597 385.813 431.512 385.813 431.427C385.813 431.341 385.836 431.257 385.88 431.183C385.924 431.109 385.986 431.048 386.061 431.007L388.691 429.657C388.773 429.617 388.843 429.554 388.891 429.477L390.411 426.937C390.454 426.862 390.516 426.8 390.591 426.757C390.665 426.713 390.75 426.691 390.836 426.691C390.922 426.691 391.007 426.713 391.082 426.757C391.156 426.8 391.218 426.862 391.261 426.937L392.541 429.537C392.583 429.618 392.65 429.685 392.731 429.727Z" fill="#E0E0E0"/>
<path d="M654.221 248.457L656.731 249.917C656.806 249.958 656.869 250.019 656.912 250.093C656.956 250.167 656.979 250.251 656.979 250.337C656.979 250.422 656.956 250.507 656.912 250.581C656.869 250.654 656.806 250.715 656.731 250.757L654.101 252.107C654.017 252.148 653.947 252.214 653.901 252.297L652.381 254.827C652.338 254.902 652.276 254.964 652.202 255.007C652.127 255.05 652.042 255.073 651.956 255.073C651.87 255.073 651.785 255.05 651.711 255.007C651.636 254.964 651.574 254.902 651.531 254.827L650.251 252.227C650.209 252.145 650.143 252.079 650.061 252.037L647.561 250.577C647.486 250.535 647.423 250.474 647.38 250.401C647.336 250.327 647.313 250.242 647.313 250.157C647.313 250.071 647.336 249.987 647.38 249.913C647.423 249.839 647.486 249.778 647.561 249.737L650.191 248.387C650.274 248.343 650.343 248.277 650.391 248.197L651.911 245.667C651.954 245.592 652.016 245.53 652.091 245.487C652.165 245.443 652.25 245.421 652.336 245.421C652.422 245.421 652.507 245.443 652.582 245.487C652.656 245.53 652.718 245.592 652.761 245.667L654.041 248.267C654.082 248.346 654.144 248.412 654.221 248.457Z" fill="#E0E0E0"/>
<path d="M8.84116 270.717L10.8412 271.907C10.9015 271.941 10.9517 271.99 10.9867 272.05C11.0217 272.11 11.0401 272.178 11.0401 272.247C11.0401 272.316 11.0217 272.384 10.9867 272.444C10.9517 272.503 10.9015 272.553 10.8412 272.587L8.70116 273.657C8.63651 273.693 8.58162 273.745 8.54116 273.807L7.29116 275.807C7.25724 275.867 7.20787 275.917 7.14812 275.952C7.08837 275.987 7.02039 276.006 6.95116 276.006C6.88193 276.006 6.81394 275.987 6.75419 275.952C6.69444 275.917 6.64507 275.867 6.61116 275.807L5.61116 273.697C5.57479 273.632 5.52332 273.577 5.46115 273.537L3.46115 272.337C3.4008 272.303 3.35056 272.253 3.3156 272.194C3.28063 272.134 3.26221 272.066 3.26221 271.997C3.26221 271.928 3.28063 271.86 3.3156 271.8C3.35056 271.74 3.4008 271.691 3.46115 271.657L5.60116 270.587C5.67003 270.556 5.72649 270.504 5.76116 270.437L7.01116 268.437C7.04269 268.374 7.09121 268.32 7.15127 268.283C7.21132 268.246 7.28054 268.226 7.35116 268.226C7.42177 268.226 7.49099 268.246 7.55105 268.283C7.6111 268.32 7.65962 268.374 7.69116 268.437L8.69116 270.547C8.72927 270.613 8.78028 270.671 8.84116 270.717Z" fill="#E0E0E0"/>
<path d="M221.481 419.417L223.481 420.617C223.541 420.651 223.591 420.7 223.626 420.76C223.661 420.82 223.68 420.887 223.68 420.957C223.68 421.026 223.661 421.094 223.626 421.154C223.591 421.213 223.541 421.263 223.481 421.297L221.341 422.367C221.274 422.4 221.219 422.452 221.181 422.517L219.931 424.517C219.897 424.577 219.848 424.627 219.788 424.662C219.728 424.697 219.66 424.716 219.591 424.716C219.522 424.716 219.454 424.697 219.394 424.662C219.334 424.627 219.285 424.577 219.251 424.517L218.251 422.407C218.214 422.342 218.163 422.287 218.101 422.247L216.101 421.047C216.04 421.013 215.99 420.963 215.955 420.904C215.92 420.844 215.902 420.776 215.902 420.707C215.902 420.637 215.92 420.57 215.955 420.51C215.99 420.45 216.04 420.401 216.101 420.367L218.241 419.297C218.31 419.266 218.366 419.214 218.401 419.147L219.651 417.147C219.685 417.086 219.734 417.036 219.794 417.001C219.854 416.966 219.922 416.948 219.991 416.948C220.06 416.948 220.128 416.966 220.188 417.001C220.248 417.036 220.297 417.086 220.331 417.147L221.331 419.257C221.364 419.323 221.417 419.379 221.481 419.417Z" fill="#E0E0E0"/>
<path d="M604.871 370.497L606.871 371.697C606.931 371.731 606.981 371.78 607.016 371.84C607.051 371.9 607.07 371.968 607.07 372.037C607.07 372.106 607.051 372.174 607.016 372.234C606.981 372.293 606.931 372.343 606.871 372.377L604.731 373.447C604.664 373.48 604.609 373.532 604.571 373.597L603.321 375.597C603.287 375.657 603.237 375.707 603.178 375.742C603.118 375.777 603.05 375.796 602.981 375.796C602.911 375.796 602.844 375.777 602.784 375.742C602.724 375.707 602.675 375.657 602.641 375.597L601.641 373.487C601.611 373.421 601.562 373.365 601.501 373.327L599.501 372.127C599.44 372.093 599.39 372.043 599.355 371.984C599.32 371.924 599.302 371.856 599.302 371.787C599.302 371.718 599.32 371.65 599.355 371.59C599.39 371.53 599.44 371.481 599.501 371.447L601.641 370.377C601.71 370.346 601.766 370.293 601.801 370.227L603.051 368.227C603.085 368.166 603.134 368.116 603.194 368.081C603.253 368.046 603.321 368.028 603.391 368.028C603.46 368.028 603.528 368.046 603.588 368.081C603.647 368.116 603.697 368.166 603.731 368.227L604.731 370.327C604.76 370.396 604.809 370.455 604.871 370.497Z" fill="#E0E0E0"/>
<path d="M562.331 417.997L564.331 419.197C564.391 419.231 564.441 419.28 564.476 419.34C564.511 419.4 564.53 419.468 564.53 419.537C564.53 419.606 564.511 419.674 564.476 419.734C564.441 419.793 564.391 419.843 564.331 419.877L562.191 420.947C562.122 420.977 562.066 421.03 562.031 421.097L560.781 423.097C560.747 423.157 560.698 423.207 560.638 423.242C560.578 423.277 560.51 423.296 560.441 423.296C560.372 423.296 560.304 423.277 560.244 423.242C560.184 423.207 560.135 423.157 560.101 423.097L559.101 420.987C559.064 420.925 559.013 420.873 558.951 420.837L556.951 419.637C556.891 419.603 556.84 419.553 556.805 419.494C556.77 419.434 556.752 419.366 556.752 419.297C556.752 419.227 556.77 419.16 556.805 419.1C556.84 419.04 556.891 418.991 556.951 418.957L559.091 417.887C559.156 417.85 559.21 417.799 559.251 417.737L560.501 415.737C560.535 415.676 560.584 415.626 560.644 415.591C560.704 415.556 560.772 415.538 560.841 415.538C560.91 415.538 560.978 415.556 561.038 415.591C561.098 415.626 561.147 415.676 561.181 415.737L562.181 417.847C562.219 417.908 562.27 417.959 562.331 417.997Z" fill="#E0E0E0"/>
<path d="M605.341 112.067L607.521 113.367C607.585 113.403 607.639 113.457 607.676 113.521C607.713 113.585 607.733 113.658 607.733 113.732C607.733 113.806 607.713 113.879 607.676 113.943C607.639 114.007 607.585 114.06 607.521 114.097L605.201 115.257C605.131 115.294 605.072 115.349 605.031 115.417L603.671 117.627C603.634 117.691 603.581 117.745 603.517 117.782C603.453 117.819 603.38 117.839 603.306 117.839C603.232 117.839 603.159 117.819 603.095 117.782C603.031 117.745 602.977 117.691 602.941 117.627L601.791 115.317C601.757 115.244 601.701 115.185 601.631 115.147L599.451 113.847C599.384 113.811 599.328 113.757 599.289 113.692C599.25 113.627 599.229 113.553 599.229 113.477C599.229 113.401 599.25 113.326 599.289 113.261C599.328 113.196 599.384 113.143 599.451 113.107L601.771 111.957C601.841 111.916 601.9 111.857 601.941 111.787L603.291 109.587C603.327 109.52 603.38 109.464 603.445 109.425C603.51 109.386 603.585 109.365 603.661 109.365C603.737 109.365 603.811 109.386 603.876 109.425C603.941 109.464 603.995 109.52 604.031 109.587L605.141 111.867C605.158 111.912 605.185 111.953 605.22 111.988C605.254 112.022 605.295 112.049 605.341 112.067Z" fill="#E0E0E0"/>
<path d="M535.551 150.107L536.551 150.757C536.583 150.772 536.609 150.797 536.628 150.827C536.647 150.857 536.656 150.891 536.656 150.927C536.656 150.962 536.647 150.997 536.628 151.027C536.609 151.057 536.583 151.081 536.551 151.097L535.491 151.607C535.456 151.623 535.427 151.651 535.411 151.687L534.811 152.687C534.794 152.718 534.769 152.744 534.738 152.762C534.707 152.78 534.672 152.79 534.636 152.79C534.6 152.79 534.565 152.78 534.535 152.762C534.504 152.744 534.478 152.718 534.461 152.687L533.911 151.597C533.893 151.563 533.865 151.535 533.831 151.517L532.831 150.867C532.8 150.851 532.773 150.827 532.754 150.797C532.736 150.767 532.726 150.732 532.726 150.697C532.726 150.661 532.736 150.627 532.754 150.597C532.773 150.567 532.8 150.542 532.831 150.527L533.901 150.017C533.935 149.998 533.963 149.971 533.981 149.937L534.581 148.937C534.597 148.905 534.621 148.879 534.651 148.86C534.681 148.841 534.716 148.832 534.751 148.832C534.787 148.832 534.821 148.841 534.851 148.86C534.881 148.879 534.905 148.905 534.921 148.937L535.481 150.027C535.496 150.06 535.52 150.088 535.551 150.107Z" fill="#00B5D8"/>
<path d="M536.371 301.267L537.371 301.917C537.403 301.932 537.429 301.957 537.448 301.987C537.466 302.017 537.476 302.051 537.476 302.087C537.476 302.122 537.466 302.157 537.448 302.187C537.429 302.217 537.403 302.241 537.371 302.257L536.311 302.767C536.275 302.782 536.246 302.811 536.231 302.847L535.631 303.847C535.614 303.878 535.588 303.904 535.558 303.922C535.527 303.94 535.492 303.95 535.456 303.95C535.42 303.95 535.385 303.94 535.354 303.922C535.324 303.904 535.298 303.878 535.281 303.847L534.731 302.757C534.71 302.725 534.683 302.698 534.651 302.677L533.651 302.037C533.62 302.019 533.594 301.994 533.576 301.963C533.557 301.933 533.548 301.897 533.548 301.862C533.548 301.826 533.557 301.791 533.576 301.76C533.594 301.729 533.62 301.704 533.651 301.687L534.721 301.177C534.752 301.159 534.779 301.135 534.801 301.107L535.391 300.107C535.408 300.075 535.434 300.049 535.464 300.031C535.495 300.013 535.53 300.004 535.566 300.004C535.602 300.004 535.637 300.013 535.668 300.031C535.698 300.049 535.724 300.075 535.741 300.107L536.291 301.197C536.313 301.225 536.34 301.248 536.371 301.267Z" fill="#00B5D8"/>
<path d="M577.901 231.997L579.901 233.197C579.962 233.231 580.012 233.28 580.047 233.34C580.082 233.399 580.1 233.467 580.1 233.537C580.1 233.606 580.082 233.674 580.047 233.734C580.012 233.793 579.962 233.843 579.901 233.877L577.791 234.947C577.722 234.98 577.663 235.032 577.621 235.097L576.381 237.097C576.347 237.157 576.298 237.207 576.238 237.242C576.178 237.277 576.11 237.296 576.041 237.296C575.972 237.296 575.904 237.277 575.844 237.242C575.785 237.207 575.735 237.157 575.701 237.097L574.701 234.997C574.672 234.931 574.623 234.875 574.561 234.837L572.561 233.637C572.501 233.603 572.451 233.553 572.416 233.494C572.381 233.434 572.362 233.366 572.362 233.297C572.362 233.227 572.381 233.159 572.416 233.1C572.451 233.04 572.501 232.991 572.561 232.957L574.701 231.887C574.77 231.856 574.827 231.803 574.861 231.737L576.111 229.737C576.145 229.676 576.195 229.626 576.254 229.591C576.314 229.556 576.382 229.538 576.451 229.538C576.52 229.538 576.589 229.556 576.648 229.591C576.708 229.626 576.757 229.676 576.791 229.737L577.791 231.847C577.812 231.907 577.85 231.959 577.901 231.997Z" fill="#00B5D8"/>
<path d="M524.391 161.427L526.391 162.677C526.452 162.709 526.503 162.757 526.538 162.816C526.573 162.875 526.592 162.943 526.592 163.012C526.592 163.081 526.573 163.148 526.538 163.207C526.503 163.266 526.452 163.314 526.391 163.347L524.321 164.347C524.257 164.383 524.202 164.435 524.161 164.497L523.001 166.497C522.967 166.557 522.918 166.607 522.858 166.642C522.799 166.677 522.731 166.696 522.661 166.696C522.592 166.696 522.524 166.677 522.464 166.642C522.405 166.607 522.355 166.557 522.321 166.497L521.251 164.367C521.215 164.302 521.163 164.247 521.101 164.207L519.101 162.957C519.041 162.923 518.991 162.873 518.956 162.814C518.921 162.754 518.902 162.686 518.902 162.617C518.902 162.547 518.921 162.48 518.956 162.42C518.991 162.36 519.041 162.311 519.101 162.277L521.181 161.277C521.245 161.247 521.297 161.198 521.331 161.137L522.501 159.137C522.534 159.076 522.582 159.025 522.641 158.99C522.7 158.955 522.768 158.936 522.836 158.936C522.905 158.936 522.973 158.955 523.032 158.99C523.091 159.025 523.139 159.076 523.171 159.137L524.251 161.257C524.281 161.326 524.329 161.385 524.391 161.427Z" fill="#00B5D8"/>
<path d="M49.3112 220.247L50.8412 221.247C50.8871 221.272 50.9255 221.308 50.9522 221.353C50.979 221.398 50.9931 221.449 50.9931 221.502C50.9931 221.554 50.979 221.605 50.9522 221.65C50.9255 221.695 50.8871 221.732 50.8412 221.757L49.2512 222.497C49.2 222.519 49.1578 222.558 49.1312 222.607L48.2212 224.097C48.1963 224.143 48.1595 224.181 48.1146 224.208C48.0697 224.234 48.0184 224.249 47.9662 224.249C47.9139 224.249 47.8627 224.234 47.8178 224.208C47.7729 224.181 47.7361 224.143 47.7112 224.097L46.9212 222.477C46.8923 222.424 46.8511 222.38 46.8012 222.347L45.2812 221.347C45.2355 221.32 45.1975 221.283 45.1711 221.237C45.1448 221.191 45.1309 221.139 45.1309 221.087C45.1309 221.034 45.1448 220.982 45.1711 220.937C45.1975 220.891 45.2355 220.853 45.2812 220.827L46.8612 220.097C46.9138 220.077 46.9567 220.037 46.9812 219.987L47.8912 218.497C47.9161 218.451 47.9529 218.412 47.9978 218.386C48.0427 218.359 48.094 218.345 48.1462 218.345C48.1984 218.345 48.2497 218.359 48.2946 218.386C48.3395 218.412 48.3763 218.451 48.4012 218.497L49.2012 220.117C49.2266 220.168 49.2644 220.213 49.3112 220.247Z" fill="#00B5D8"/>
<path d="M82.4312 254.897L83.9112 255.747C83.9553 255.769 83.9923 255.804 84.0181 255.846C84.0439 255.889 84.0575 255.937 84.0575 255.987C84.0575 256.036 84.0439 256.085 84.0181 256.127C83.9923 256.17 83.9553 256.204 83.9112 256.227L82.4512 256.987C82.4052 257.013 82.3672 257.051 82.3412 257.097L81.5612 258.537C81.537 258.58 81.5015 258.617 81.4584 258.642C81.4153 258.668 81.3662 258.681 81.3162 258.681C81.2662 258.681 81.2171 258.668 81.174 258.642C81.1309 258.617 81.0954 258.58 81.0712 258.537L80.2512 257.047C80.229 256.996 80.1902 256.953 80.1412 256.927L78.6712 256.087C78.6271 256.064 78.5902 256.03 78.5644 255.987C78.5386 255.945 78.5249 255.896 78.5249 255.847C78.5249 255.797 78.5386 255.748 78.5644 255.706C78.5902 255.664 78.6271 255.629 78.6712 255.607L80.1312 254.847C80.1751 254.818 80.2125 254.781 80.2412 254.737L81.0212 253.297C81.0439 253.253 81.0783 253.216 81.1207 253.19C81.163 253.164 81.2116 253.15 81.2612 253.15C81.3108 253.15 81.3594 253.164 81.4017 253.19C81.4441 253.216 81.4785 253.253 81.5012 253.297L82.3212 254.787C82.3472 254.833 82.3852 254.871 82.4312 254.897Z" fill="#00B5D8"/>
<path d="M126.731 140.207L128.211 141.057C128.253 141.082 128.287 141.117 128.311 141.159C128.335 141.201 128.347 141.248 128.347 141.297C128.347 141.345 128.335 141.393 128.311 141.435C128.287 141.477 128.253 141.512 128.211 141.537L126.751 142.297C126.704 142.316 126.665 142.352 126.641 142.397L125.851 143.847C125.829 143.891 125.794 143.928 125.752 143.954C125.71 143.979 125.661 143.993 125.611 143.993C125.562 143.993 125.513 143.979 125.471 143.954C125.428 143.928 125.394 143.891 125.371 143.847L124.551 142.347C124.525 142.301 124.487 142.263 124.441 142.237L122.961 141.397C122.918 141.372 122.881 141.337 122.856 141.294C122.83 141.251 122.817 141.202 122.817 141.152C122.817 141.102 122.83 141.053 122.856 141.01C122.881 140.966 122.918 140.931 122.961 140.907L124.421 140.147C124.464 140.124 124.499 140.089 124.521 140.047L125.311 138.597C125.334 138.553 125.368 138.516 125.411 138.49C125.453 138.464 125.502 138.45 125.551 138.45C125.601 138.45 125.65 138.464 125.692 138.49C125.734 138.516 125.769 138.553 125.791 138.597L126.611 140.087C126.645 140.132 126.686 140.173 126.731 140.207Z" fill="#00B5D8"/>
<path d="M241.671 115.897L243.151 116.747C243.195 116.769 243.232 116.804 243.258 116.846C243.284 116.889 243.298 116.937 243.298 116.987C243.298 117.036 243.284 117.085 243.258 117.127C243.232 117.17 243.195 117.204 243.151 117.227L241.691 117.987C241.666 117.997 241.644 118.012 241.625 118.031C241.606 118.049 241.591 118.072 241.581 118.097L240.791 119.537C240.768 119.581 240.734 119.618 240.692 119.644C240.649 119.669 240.601 119.683 240.551 119.683C240.502 119.683 240.453 119.669 240.411 119.644C240.368 119.618 240.334 119.581 240.311 119.537L239.491 118.047C239.469 117.996 239.43 117.953 239.381 117.927L237.901 117.087C237.857 117.064 237.82 117.03 237.794 116.987C237.769 116.945 237.755 116.896 237.755 116.847C237.755 116.797 237.769 116.749 237.794 116.706C237.82 116.664 237.857 116.629 237.901 116.607L239.361 115.847C239.405 115.818 239.443 115.781 239.471 115.737L240.251 114.287C240.276 114.245 240.311 114.211 240.353 114.187C240.395 114.163 240.443 114.151 240.491 114.151C240.54 114.151 240.587 114.163 240.629 114.187C240.671 114.211 240.706 114.245 240.731 114.287L241.551 115.777C241.578 115.828 241.62 115.87 241.671 115.897Z" fill="#00B5D8"/>
<path d="M71.6312 260.417L74.5612 262.097C74.6569 262.141 74.738 262.211 74.7949 262.3C74.8518 262.388 74.882 262.491 74.882 262.597C74.882 262.702 74.8518 262.805 74.7949 262.894C74.738 262.982 74.6569 263.053 74.5612 263.097L71.6712 264.607C71.5778 264.652 71.5009 264.726 71.4512 264.817L69.8912 267.687C69.8506 267.786 69.7814 267.871 69.6924 267.931C69.6033 267.991 69.4985 268.023 69.3912 268.023C69.2839 268.023 69.179 267.991 69.09 267.931C69.0009 267.871 68.9317 267.786 68.8912 267.687L67.2612 264.687C67.2095 264.592 67.1336 264.513 67.0412 264.457L64.1012 262.777C64.0018 262.736 63.9168 262.667 63.8569 262.578C63.7971 262.489 63.7651 262.384 63.7651 262.277C63.7651 262.169 63.7971 262.065 63.8569 261.976C63.9168 261.886 64.0018 261.817 64.1012 261.777L67.0012 260.267C67.0898 260.218 67.1626 260.145 67.2112 260.057L68.7712 257.187C68.8151 257.091 68.8855 257.01 68.9741 256.953C69.0628 256.896 69.1659 256.866 69.2712 256.866C69.3765 256.866 69.4796 256.896 69.5682 256.953C69.6569 257.01 69.7273 257.091 69.7712 257.187L71.4012 260.187C71.4543 260.284 71.5341 260.364 71.6312 260.417Z" fill="#00B5D8"/>
<path d="M262.401 100.557L265.331 102.237C265.417 102.283 265.488 102.352 265.538 102.435C265.588 102.519 265.614 102.614 265.614 102.712C265.614 102.809 265.588 102.905 265.538 102.988C265.488 103.072 265.417 103.14 265.331 103.187L262.441 104.697C262.35 104.745 262.274 104.818 262.221 104.907L260.661 107.777C260.615 107.862 260.546 107.934 260.463 107.984C260.379 108.034 260.284 108.06 260.186 108.06C260.089 108.06 259.993 108.034 259.91 107.984C259.826 107.934 259.758 107.862 259.711 107.777L258.081 104.777C258.029 104.685 257.953 104.609 257.861 104.557L254.931 102.897C254.836 102.853 254.754 102.782 254.697 102.694C254.641 102.605 254.61 102.502 254.61 102.397C254.61 102.291 254.641 102.188 254.697 102.1C254.754 102.011 254.836 101.941 254.931 101.897L257.831 100.387C257.922 100.341 257.996 100.268 258.041 100.177L259.601 97.3067C259.645 97.211 259.716 97.1298 259.804 97.073C259.893 97.0161 259.996 96.9858 260.101 96.9858C260.207 96.9858 260.31 97.0161 260.398 97.073C260.487 97.1298 260.557 97.211 260.601 97.3067L262.231 100.307C262.266 100.403 262.324 100.489 262.401 100.557Z" fill="#00B5D8"/>
<path d="M220.471 385.897L223.401 387.577C223.487 387.623 223.558 387.692 223.608 387.775C223.658 387.859 223.684 387.954 223.684 388.052C223.684 388.149 223.658 388.245 223.608 388.328C223.558 388.412 223.487 388.48 223.401 388.527L220.501 390.037C220.41 390.082 220.337 390.156 220.291 390.247L218.791 393.117C218.747 393.212 218.677 393.294 218.588 393.35C218.5 393.407 218.397 393.438 218.291 393.438C218.186 393.438 218.083 393.407 217.994 393.35C217.906 393.294 217.835 393.212 217.791 393.117L216.161 390.117C216.109 390.025 216.033 389.949 215.941 389.897L213.011 388.217C212.916 388.173 212.834 388.102 212.778 388.014C212.721 387.925 212.69 387.822 212.69 387.717C212.69 387.611 212.721 387.508 212.778 387.42C212.834 387.331 212.916 387.261 213.011 387.217L215.911 385.707C216.005 385.661 216.082 385.588 216.131 385.497L217.691 382.627C217.738 382.541 217.806 382.47 217.89 382.42C217.973 382.37 218.069 382.344 218.166 382.344C218.264 382.344 218.359 382.37 218.443 382.42C218.526 382.47 218.595 382.541 218.641 382.627L220.271 385.627C220.311 385.734 220.381 385.827 220.471 385.897Z" fill="#00B5D8"/>
<path d="M493.461 333.757L496.391 335.437C496.487 335.481 496.568 335.551 496.625 335.64C496.682 335.728 496.712 335.831 496.712 335.937C496.712 336.042 496.682 336.145 496.625 336.234C496.568 336.322 496.487 336.393 496.391 336.437L493.511 337.897C493.42 337.945 493.344 338.018 493.291 338.107L491.731 340.977C491.69 341.076 491.621 341.161 491.532 341.221C491.443 341.281 491.338 341.313 491.231 341.313C491.124 341.313 491.019 341.281 490.93 341.221C490.841 341.161 490.772 341.076 490.731 340.977L489.101 337.977C489.049 337.885 488.973 337.809 488.881 337.757L485.941 336.077C485.845 336.033 485.764 335.962 485.707 335.874C485.65 335.785 485.62 335.682 485.62 335.577C485.62 335.471 485.65 335.368 485.707 335.28C485.764 335.191 485.845 335.121 485.941 335.077L488.841 333.567C488.932 333.521 489.006 333.448 489.051 333.357L490.611 330.487C490.655 330.391 490.725 330.31 490.814 330.253C490.903 330.196 491.006 330.166 491.111 330.166C491.216 330.166 491.319 330.196 491.408 330.253C491.497 330.31 491.567 330.391 491.611 330.487L493.241 333.487C493.281 333.599 493.359 333.695 493.461 333.757Z" fill="#00B5D8"/>
<path d="M453.111 116.587L455.021 117.687C455.078 117.716 455.125 117.761 455.158 117.816C455.191 117.87 455.208 117.933 455.208 117.997C455.208 118.061 455.191 118.123 455.158 118.178C455.125 118.233 455.078 118.277 455.021 118.307L453.131 119.307C453.073 119.34 453.024 119.388 452.991 119.447L451.991 121.317C451.96 121.373 451.914 121.42 451.859 121.453C451.803 121.485 451.74 121.502 451.676 121.502C451.612 121.502 451.549 121.485 451.493 121.453C451.438 121.42 451.392 121.373 451.361 121.317L450.301 119.387C450.27 119.326 450.221 119.277 450.161 119.247L448.251 118.147C448.194 118.117 448.147 118.073 448.114 118.018C448.081 117.963 448.063 117.901 448.063 117.837C448.063 117.773 448.081 117.71 448.114 117.656C448.147 117.601 448.194 117.556 448.251 117.527L450.141 116.527C450.201 116.496 450.25 116.447 450.281 116.387L451.281 114.517C451.312 114.46 451.358 114.414 451.413 114.381C451.469 114.348 451.532 114.331 451.596 114.331C451.66 114.331 451.723 114.348 451.779 114.381C451.834 114.414 451.88 114.46 451.911 114.517L452.971 116.447C453.002 116.507 453.051 116.556 453.111 116.587Z" fill="#00B5D8"/>
<path d="M541.529 397.979C558.817 381.835 564.426 359.746 554.057 348.641C543.687 337.537 521.266 341.622 503.977 357.766C486.689 373.911 481.08 396 491.45 407.105C501.819 418.209 524.241 414.124 541.529 397.979Z" fill="#263238"/>
<path d="M535.941 391.747C520.211 406.487 500.181 411.217 488.881 403.547C489.596 404.842 490.473 406.042 491.491 407.117C501.891 418.197 524.321 414.067 541.591 397.907C558.861 381.747 564.421 359.657 554.021 348.587C553.12 347.618 552.114 346.752 551.021 346.007C557.571 357.797 551.511 377.177 535.941 391.747Z" fill="#455A64"/>
<path d="M241.554 70.5429C253.539 66.8282 261.721 58.8647 259.827 52.756C257.934 46.6472 246.683 44.7064 234.698 48.4211C222.712 52.1358 214.531 60.0993 216.424 66.2081C218.318 72.3169 229.569 74.2576 241.554 70.5429Z" fill="#263238"/>
<path d="M235.321 51.8967C246.191 48.3767 256.671 49.5167 260.101 54.2967C260.075 53.6719 259.954 53.0548 259.741 52.4667C257.551 46.4667 246.101 44.7067 234.161 48.5767C222.221 52.4467 214.331 60.4567 216.521 66.4667C216.722 66.9993 216.991 67.5036 217.321 67.9667C217.081 62.2567 224.561 55.4067 235.321 51.8967Z" fill="#455A64"/>
<path d="M428.178 111.918C430.033 99.8939 406.081 86.2189 374.679 81.3746C343.278 76.5302 316.318 82.3509 314.463 94.3755C312.608 106.4 336.56 120.075 367.961 124.919C399.363 129.764 426.323 123.943 428.178 111.918Z" fill="#263238"/>
<path d="M375.131 88.2067C403.661 93.0667 425.131 105.047 426.341 116.087C427.09 115.104 427.643 113.988 427.971 112.797C431.111 100.977 408.291 87.0667 376.971 81.7367C345.651 76.4067 317.751 81.6567 314.601 93.4767C314.336 94.5146 314.258 95.5915 314.371 96.6567C321.441 87.2067 346.911 83.3967 375.131 88.2067Z" fill="#455A64"/>
<path d="M368.871 101.257C376.041 105.007 380.871 112.087 387.501 116.707C391.901 119.757 397.241 121.867 400.201 126.327C399.911 123.717 398.121 121.547 396.341 119.617C391.312 114.191 385.687 109.35 379.571 105.187C376.431 103.057 372.951 101.037 369.161 101.057" fill="#455A64"/>
<g opacity="0.2">
<path d="M368.871 101.257C376.041 105.007 380.871 112.087 387.501 116.707C391.901 119.757 397.241 121.867 400.201 126.327C399.911 123.717 398.121 121.547 396.341 119.617C391.312 114.191 385.687 109.35 379.571 105.187C376.431 103.057 372.951 101.037 369.161 101.057" fill="black"/>
</g>
<path d="M402.991 4.47672C402.965 3.30164 402.57 2.16462 401.861 1.22672C400.781 0.0367198 398.971 -0.0832826 397.371 0.0367174C390.551 0.546717 381.871 10.6567 377.701 16.0367L378.401 46.1267C397.081 36.3867 404.591 18.8967 402.991 4.47672Z" fill="#455A64"/>
<g opacity="0.2">
<path d="M402.991 4.47672C402.965 3.30164 402.57 2.16462 401.861 1.22672C400.781 0.0367198 398.971 -0.0832826 397.371 0.0367174C390.551 0.546717 381.871 10.6567 377.701 16.0367L378.401 46.1267C397.081 36.3867 404.591 18.8967 402.991 4.47672Z" fill="black"/>
</g>
<path d="M373.451 66.2767C376.934 65.0334 380.513 64.0769 384.151 63.4167C387.711 62.8367 391.281 61.3467 394.791 60.5167C399.331 59.4567 403.571 57.4067 407.931 55.7267C412.291 54.0467 416.931 52.7267 421.581 53.2467C418.092 51.6034 414.267 50.7987 410.411 50.8967C406.572 51.0051 402.748 51.4097 398.971 52.1067C393.711 52.9467 388.351 53.8167 383.591 56.2067C378.831 58.5967 374.441 61.0367 373.451 66.2767Z" fill="#455A64"/>
<g opacity="0.2">
<path d="M373.451 66.2767C376.934 65.0334 380.513 64.0769 384.151 63.4167C387.711 62.8367 391.281 61.3467 394.791 60.5167C399.331 59.4567 403.571 57.4067 407.931 55.7267C412.291 54.0467 416.931 52.7267 421.581 53.2467C418.092 51.6034 414.267 50.7987 410.411 50.8967C406.572 51.0051 402.748 51.4097 398.971 52.1067C393.711 52.9467 388.351 53.8167 383.591 56.2067C378.831 58.5967 374.441 61.0367 373.451 66.2767Z" fill="black"/>
</g>
<path d="M349.221 67.2967C344.611 60.5367 335.371 58.5667 327.421 56.5967C338.471 66.0975 348.417 76.8116 357.071 88.5367C358.911 83.0367 355.061 75.8967 349.221 67.2967Z" fill="#455A64"/>
<g opacity="0.2">
<path d="M349.221 67.2967C344.611 60.5367 335.371 58.5667 327.421 56.5967C338.471 66.0975 348.417 76.8116 357.071 88.5367C358.911 83.0367 355.061 75.8967 349.221 67.2967Z" fill="black"/>
</g>
<path d="M355.181 109.287C345.671 106.537 337.831 95.6767 328.451 92.6167C339.271 92.1067 352.801 98.6167 355.181 109.287Z" fill="#455A64"/>
<g opacity="0.2">
<path d="M355.181 109.287C345.671 106.537 337.831 95.6767 328.451 92.6167C339.271 92.1067 352.801 98.6167 355.181 109.287Z" fill="black"/>
</g>
<path d="M364.651 87.3367C370.009 87.0638 375.35 88.1328 380.191 90.4467C385.009 92.7618 389.628 95.471 394.001 98.5467C394.411 95.1067 392.401 91.8867 390.481 88.9967C389.102 86.7745 387.515 84.6885 385.741 82.7667C383.962 80.8283 381.664 79.4402 379.121 78.7667C377.574 78.4521 375.98 78.4529 374.433 78.7691C372.887 79.0852 371.42 79.7103 370.121 80.6067C367.622 82.188 365.705 84.5398 364.661 87.3067" fill="#455A64"/>
<path d="M355.901 122.377C355.901 122.377 360.621 90.1267 365.851 72.3767C371.081 54.6267 376.151 34.3767 376.151 34.3767L378.211 34.9367C378.211 34.9367 367.211 70.0667 362.871 91.9367C358.531 113.807 360.001 123.547 360.001 123.547L355.901 122.477" fill="#455A64"/>
<path d="M401.071 2.21671C401.01 2.33439 400.936 2.44505 400.851 2.54671L400.171 3.45671C399.571 4.22671 398.721 5.36671 397.681 6.78671C395.601 9.61671 392.851 13.6167 390.111 18.2167C387.371 22.8167 385.181 27.1567 383.691 30.3367C382.941 31.9267 382.351 33.2167 381.951 34.1167C381.761 34.5367 381.611 34.8767 381.481 35.1167C381.436 35.2407 381.376 35.3584 381.301 35.4667C381.327 35.3394 381.368 35.2153 381.421 35.0967C381.521 34.8167 381.661 34.4667 381.831 34.0367C382.181 33.1167 382.741 31.8067 383.461 30.2067C387.228 21.8403 391.925 13.9239 397.461 6.60671C398.521 5.20671 399.411 4.08671 400.041 3.33671C400.341 2.98671 400.581 2.69671 400.781 2.47671C400.981 2.25671 401.061 2.20671 401.071 2.21671Z" fill="#455A64"/>
<path d="M372.691 50.7067C369.737 47.3445 367.694 43.2805 366.759 38.9034C365.824 34.5263 366.028 29.9826 367.351 25.7067C369.141 19.5467 373.041 14.2467 377.101 9.28672C377.407 8.8145 377.866 8.46154 378.401 8.28672C378.792 8.27047 379.18 8.3537 379.53 8.5286C379.88 8.70351 380.179 8.96436 380.401 9.28672C384.841 14.2867 386.121 21.4667 385.801 28.1667C385.691 32.6479 384.652 37.0575 382.751 41.1167C380.538 45.307 377.03 48.6705 372.751 50.7067" fill="#455A64"/>
<path d="M372.691 50.7067C372.713 50.5773 372.746 50.4501 372.791 50.3267C372.881 50.0467 372.991 49.6967 373.131 49.2767C373.441 48.3667 373.861 47.0367 374.341 45.3867C375.576 41.0852 376.554 36.7142 377.271 32.2967C378.101 27.1167 378.591 22.3867 378.921 18.9667C379.081 17.2867 379.221 15.9667 379.311 14.9667C379.364 14.5134 379.404 14.1434 379.431 13.8567C379.431 13.6067 379.481 13.4767 379.501 13.4767C379.514 13.6064 379.514 13.737 379.501 13.8667C379.501 14.1567 379.501 14.5267 379.501 14.9767C379.451 15.9767 379.361 17.3267 379.221 19.0367C378.951 22.4667 378.511 27.2067 377.661 32.4067C376.965 36.8375 375.963 41.2147 374.661 45.5067C374.141 47.1567 373.661 48.5067 373.341 49.3667C373.181 49.7867 373.041 50.1267 372.941 50.3667C372.875 50.4921 372.791 50.6068 372.691 50.7067Z" fill="#263238"/>
<g opacity="0.2">
<path d="M364.651 87.3367C370.009 87.0638 375.35 88.1328 380.191 90.4467C385.009 92.7618 389.628 95.471 394.001 98.5467C394.411 95.1067 392.401 91.8867 390.481 88.9967C389.102 86.7745 387.515 84.6885 385.741 82.7667C383.962 80.8283 381.664 79.4402 379.121 78.7667C377.574 78.4521 375.98 78.4529 374.433 78.7691C372.887 79.0852 371.42 79.7103 370.121 80.6067C367.622 82.188 365.705 84.5398 364.661 87.3067" fill="black"/>
</g>
<path d="M387.971 113.607C387.971 113.607 387.871 113.537 387.701 113.387C387.531 113.237 387.271 112.997 386.981 112.737C386.371 112.157 385.491 111.307 384.371 110.297C383.821 109.787 383.201 109.237 382.521 108.667C381.841 108.097 381.131 107.477 380.351 106.857C378.684 105.493 376.904 104.272 375.031 103.207C373.184 102.111 371.096 101.486 368.951 101.387C368.014 101.343 367.075 101.367 366.141 101.457C365.332 101.558 364.532 101.729 363.751 101.967C362.62 102.313 361.538 102.804 360.531 103.427C359.821 103.867 359.451 104.157 359.431 104.137C359.411 104.117 359.511 104.047 359.681 103.897C359.93 103.686 360.191 103.489 360.461 103.307C361.456 102.634 362.54 102.102 363.681 101.727C364.469 101.466 365.279 101.278 366.101 101.167C367.05 101.057 368.007 101.023 368.961 101.067C371.161 101.15 373.305 101.779 375.201 102.897C377.095 103.968 378.888 105.206 380.561 106.597C381.331 107.237 382.061 107.847 382.721 108.447C383.381 109.047 383.991 109.587 384.541 110.117C385.641 111.117 386.491 112.027 387.081 112.637L387.751 113.337C387.832 113.42 387.906 113.511 387.971 113.607Z" fill="#455A64"/>
<path d="M349.341 102.627C349.54 102.709 349.725 102.82 349.891 102.957C350.369 103.295 350.827 103.663 351.261 104.057C352.704 105.361 353.948 106.87 354.951 108.537C355.951 110.2 356.696 112.003 357.161 113.887C357.302 114.456 357.409 115.034 357.481 115.617C357.516 115.832 357.516 116.051 357.481 116.267C357.421 116.267 357.281 115.367 356.881 113.957C355.827 110.26 353.816 106.907 351.051 104.237C350.041 103.217 349.301 102.677 349.341 102.627Z" fill="#455A64"/>
<path d="M336.791 64.1167C336.922 64.1803 337.046 64.2574 337.161 64.3467L338.161 65.0667L339.781 66.2267C340.421 66.6767 341.081 67.2267 341.841 67.8867C345.753 71.1814 349.21 74.9814 352.121 79.1867C353.696 81.5155 355.113 83.9477 356.361 86.4667C357.372 88.5312 358.273 90.6475 359.061 92.8067C359.731 94.6467 360.211 96.1567 360.531 97.1967C360.691 97.6867 360.811 98.0867 360.911 98.3967C360.96 98.5365 360.997 98.6804 361.021 98.8267C360.952 98.6976 360.892 98.564 360.841 98.4267C360.741 98.1567 360.581 97.7567 360.401 97.2367C360.041 96.2367 359.531 94.7167 358.831 92.8867C358.131 91.0567 357.211 88.8867 356.071 86.6167C354.814 84.1183 353.398 81.7033 351.831 79.3867C348.967 75.2141 345.595 71.4148 341.791 68.0767C341.041 67.4567 340.391 66.8467 339.791 66.3867L338.211 65.1767L337.211 64.4067C337.059 64.3284 336.918 64.2309 336.791 64.1167Z" fill="#455A64"/>
<path d="M380.431 85.8967C380.177 85.8206 379.932 85.7166 379.701 85.5867L378.861 85.1867C378.541 85.0367 378.141 84.9267 377.721 84.7567C375.51 83.9414 373.113 83.7748 370.811 84.2767C369.547 84.5469 368.334 85.0197 367.221 85.6767C366.299 86.1967 365.437 86.8172 364.651 87.5267C363.936 88.197 363.268 88.9153 362.651 89.6767C362.751 89.4289 362.886 89.1966 363.051 88.9867C363.468 88.3939 363.944 87.8445 364.471 87.3467C365.244 86.5754 366.111 85.9035 367.051 85.3467C368.651 84.3777 370.455 83.7963 372.32 83.6487C374.185 83.5011 376.058 83.7915 377.791 84.4967C378.211 84.6767 378.611 84.8067 378.931 84.9867L379.741 85.4367C379.988 85.562 380.22 85.7164 380.431 85.8967Z" fill="#455A64"/>
<path d="M399.431 54.5267C399.294 54.5769 399.154 54.617 399.011 54.6467L397.791 54.8967C396.731 55.1467 395.201 55.5167 393.321 56.0367C391.441 56.5567 389.221 57.2367 386.811 58.1367C384.187 59.0766 381.651 60.2444 379.231 61.6267C377.97 62.3434 376.813 63.2282 375.791 64.2567C374.841 65.2567 373.931 66.2567 373.081 67.2567C371.556 68.9539 370.121 70.7296 368.781 72.5767C367.889 73.826 367.074 75.1284 366.341 76.4767C365.811 77.4767 365.571 77.9867 365.541 77.9767C365.575 77.8316 365.626 77.6907 365.691 77.5567C365.801 77.2967 365.971 76.9067 366.211 76.4167C366.907 75.0299 367.699 73.6933 368.581 72.4167C369.892 70.5391 371.311 68.7394 372.831 67.0267C373.681 66.0267 374.591 65.0267 375.541 64.0267C376.581 62.9919 377.755 62.1006 379.031 61.3767C381.473 59.9864 384.037 58.8216 386.691 57.8967C389.121 57.0167 391.361 56.3667 393.241 55.8967C395.121 55.4267 396.681 55.0767 397.751 54.8967L398.991 54.6667L399.431 54.5267Z" fill="#455A64"/>
<path d="M364.371 82.3767C364.332 82.0947 364.332 81.8087 364.371 81.5267C364.371 80.9067 364.371 80.1267 364.371 79.1967C364.399 76.6416 364.276 74.0871 364.001 71.5467C363.699 69.0084 363.245 66.4905 362.641 64.0067C362.431 63.1067 362.261 62.3467 362.121 61.7467C362.043 61.4687 361.989 61.1842 361.961 60.8967C362.089 61.1544 362.186 61.4263 362.251 61.7067C362.411 62.2367 362.631 62.9967 362.891 63.9467C364.258 68.9125 364.841 74.061 364.621 79.2067C364.621 80.2067 364.531 80.9767 364.481 81.5267C364.471 81.8129 364.434 82.0974 364.371 82.3767Z" fill="#455A64"/>
<path d="M368.121 60.1767C368.57 56.4442 368.23 52.659 367.121 49.0667C365.618 44.1394 363.054 39.6011 359.609 35.7709C356.164 31.9407 351.922 28.9117 347.181 26.8967C352.254 39.1101 357.308 51.3334 362.341 63.5667L363.981 69.9067C366.36 67.186 367.811 63.7777 368.121 60.1767Z" fill="#455A64"/>
<g opacity="0.2">
<path d="M368.121 60.1767C368.57 56.4442 368.23 52.659 367.121 49.0667C365.618 44.1394 363.054 39.6011 359.609 35.7709C356.164 31.9407 351.922 28.9117 347.181 26.8967C352.254 39.1101 357.308 51.3334 362.341 63.5667L363.981 69.9067C366.36 67.186 367.811 63.7777 368.121 60.1767Z" fill="black"/>
</g>
<path d="M179.435 408.805C190.784 397.488 185.701 373.99 168.082 356.321C150.462 338.653 126.979 333.504 115.63 344.821C104.282 356.139 109.365 379.636 126.984 397.305C144.603 414.973 168.086 420.122 179.435 408.805Z" fill="#263238"/>
<path d="M133.341 391.197C117.261 375.117 111.591 354.197 119.271 341.987C117.935 342.79 116.702 343.754 115.601 344.857C104.281 356.217 109.411 379.717 127.051 397.367C144.691 415.017 168.161 420.107 179.471 408.757C180.469 407.766 181.349 406.662 182.091 405.467C169.891 412.817 149.251 407.107 133.341 391.197Z" fill="#455A64"/>
<path d="M151.331 369.517L165.571 354.347L167.271 356.037C167.271 356.037 155.271 370.037 155.021 373.387L151.331 369.517Z" fill="#455A64"/>
<path d="M128.111 360.777L108.601 389.907L138.161 419.477L167.541 397.067L128.111 360.777Z" fill="#00B5D8"/>
<path d="M138.351 419.317C135.681 421.937 126.971 417.377 118.891 409.137C110.811 400.897 106.441 392.137 109.111 389.477C111.781 386.817 120.491 391.417 128.571 399.657C136.651 407.897 141.031 416.697 138.351 419.317Z" fill="#00B5D8"/>
<g opacity="0.3">
<path d="M138.351 419.317C135.681 421.937 126.971 417.377 118.891 409.137C110.811 400.897 106.441 392.137 109.111 389.477C111.781 386.817 120.491 391.417 128.571 399.657C136.651 407.897 141.031 416.697 138.351 419.317Z" fill="black"/>
</g>
<path d="M168.421 399.297C165.981 401.517 153.631 399.617 140.151 387.217C126.671 374.817 119.041 365.487 125.911 358.217C131.561 352.217 142.841 356.787 156.321 369.217C169.801 381.647 176.441 391.997 168.421 399.297Z" fill="#00B5D8"/>
<path d="M138.161 419.477C138.313 419.331 138.473 419.195 138.641 419.067L140.051 417.917L145.461 413.617L164.651 398.527C164.92 398.13 165.098 397.678 165.171 397.204C165.243 396.73 165.209 396.246 165.071 395.787C164.861 394.766 164.525 393.775 164.071 392.837C163.108 390.853 161.959 388.964 160.641 387.197C154.664 379.302 147.333 372.531 138.991 367.197C136.978 365.929 134.848 364.857 132.631 363.997C131.588 363.588 130.5 363.303 129.391 363.147C128.891 363.029 128.371 363.025 127.87 363.134C127.368 363.243 126.897 363.463 126.491 363.777L113.591 382.757L109.931 388.057L108.931 389.447C108.824 389.61 108.703 389.763 108.571 389.907C108.657 389.732 108.757 389.565 108.871 389.407L109.791 387.977L113.331 382.607L126.061 363.607C126.484 363.189 127.031 362.919 127.621 362.837C128.191 362.752 128.771 362.752 129.341 362.837C130.49 362.996 131.617 363.284 132.701 363.697C134.95 364.563 137.11 365.645 139.151 366.927C147.574 372.221 154.978 378.985 161.011 386.897C162.344 388.694 163.506 390.613 164.481 392.627C164.935 393.607 165.271 394.637 165.481 395.697C165.633 396.228 165.663 396.786 165.568 397.33C165.473 397.874 165.255 398.389 164.931 398.837L145.621 413.777L140.131 417.967L138.671 419.067C138.514 419.219 138.343 419.356 138.161 419.477Z" fill="#263238"/>
<path d="M228.791 358.077V362.897H210.991V340.747H228.391V345.597H217.211V349.337H227.061V354.027H217.211V358.077H228.791Z" fill="#263238"/>
<path d="M241.981 357.037H238.551V362.897H232.281V340.747H242.421C248.471 340.747 252.271 343.887 252.271 348.957C252.329 350.423 251.947 351.874 251.173 353.122C250.4 354.369 249.27 355.357 247.931 355.957L252.711 362.957H246.001L241.981 357.037ZM242.041 345.697H238.551V352.187H242.041C244.641 352.187 245.931 350.987 245.931 348.957C245.931 346.927 244.641 345.697 242.041 345.697Z" fill="#263238"/>
<path d="M265.411 357.037H261.991V362.897H255.721V340.747H265.861C271.911 340.747 275.711 343.887 275.711 348.957C275.769 350.423 275.387 351.874 274.613 353.122C273.84 354.369 272.71 355.357 271.371 355.957L276.151 362.957H269.441L265.411 357.037ZM265.481 345.697H261.991V352.187H265.481C268.081 352.187 269.371 350.987 269.371 348.957C269.371 346.927 268.081 345.697 265.481 345.697Z" fill="#263238"/>
<path d="M278.021 351.837C278.021 345.187 283.251 340.307 290.341 340.307C297.431 340.307 302.671 345.187 302.671 351.837C302.671 358.487 297.441 363.367 290.341 363.367C283.241 363.367 278.021 358.487 278.021 351.837ZM296.331 351.837C296.331 348.007 293.701 345.497 290.331 345.497C286.961 345.497 284.331 348.007 284.331 351.837C284.331 355.667 286.951 358.177 290.331 358.177C293.711 358.177 296.331 355.667 296.331 351.837Z" fill="#263238"/>
<path d="M315.651 357.037H312.231V362.897H305.961V340.747H316.091C322.141 340.747 325.951 343.887 325.951 348.957C326.007 350.423 325.623 351.872 324.85 353.12C324.077 354.367 322.949 355.355 321.611 355.957L326.391 362.957H319.671L315.651 357.037ZM315.711 345.697H312.231V352.187H315.711C318.311 352.187 319.611 350.987 319.611 348.957C319.611 346.927 318.311 345.697 315.711 345.697Z" fill="#263238"/>
<path d="M367.791 348.957C367.791 353.957 363.991 357.127 357.941 357.127H354.071V362.897H347.791V340.747H357.931C364.021 340.747 367.791 343.897 367.791 348.957ZM361.451 348.957C361.451 346.897 360.161 345.697 357.561 345.697H354.071V352.187H357.561C360.191 352.187 361.481 350.987 361.481 348.957H361.451Z" fill="#263238"/>
<path d="M384.611 358.617H375.231L373.491 362.897H367.091L376.881 340.717H383.051L392.871 362.897H386.351L384.611 358.617ZM382.791 353.997L379.941 346.897L377.091 353.997H382.791Z" fill="#263238"/>
<path d="M409.191 351.367H414.731V360.547C411.981 362.4 408.737 363.382 405.421 363.367C398.351 363.367 393.191 358.587 393.191 351.837C393.191 345.087 398.351 340.307 405.541 340.307C409.691 340.307 413.051 341.737 415.241 344.367L411.241 347.977C410.582 347.19 409.757 346.56 408.825 346.131C407.893 345.702 406.877 345.485 405.851 345.497C404.169 345.489 402.554 346.149 401.359 347.332C400.164 348.516 399.489 350.125 399.481 351.807C399.473 353.488 400.133 355.104 401.317 356.299C402.5 357.493 404.109 358.169 405.791 358.177C406.96 358.181 408.117 357.932 409.181 357.447L409.191 351.367Z" fill="#263238"/>
<path d="M436.521 358.077V362.897H418.721V340.747H436.111V345.597H424.931V349.337H434.791V354.027H424.941V358.077H436.521Z" fill="#263238"/>
<path d="M227.731 289.597H174.001V263.277L225.181 138.797H255.881V263.277H269.191V289.597H255.881V323.017H227.731V289.597ZM227.731 263.277V191.427H227.221L199.591 263.277H227.731Z" fill="#00B5D8"/>
<g opacity="0.3">
<path d="M227.731 289.597H174.001V263.277L225.181 138.797H255.881V263.277H269.191V289.597H255.881V323.017H227.731V289.597ZM227.731 263.277V191.427H227.221L199.591 263.277H227.731Z" fill="black"/>
</g>
<path d="M214.921 289.597H161.191V263.277L212.361 138.797H243.071V263.277H256.371V289.597H243.071V323.017H214.921V289.597ZM214.921 263.277V191.427H214.411L186.791 263.277H214.921Z" fill="#00B5D8"/>
<path d="M291.681 313.547C284.348 305.473 280.681 294.067 280.681 279.327V182.487C280.681 167.747 284.348 156.34 291.681 148.267C299.014 140.193 309.591 136.16 323.411 136.167C337.231 136.167 347.808 140.2 355.141 148.267C362.474 156.333 366.141 167.74 366.141 182.487V279.327C366.141 294.067 362.474 305.473 355.141 313.547C347.808 321.62 337.231 325.653 323.411 325.647C309.591 325.647 299.014 321.613 291.681 313.547ZM337.991 281.177V180.637C337.991 168.537 333.131 162.487 323.411 162.487C313.691 162.487 308.818 168.537 308.791 180.637V281.177C308.791 293.277 313.654 299.327 323.381 299.327C333.108 299.327 337.978 293.277 337.991 281.177Z" fill="#00B5D8"/>
<g opacity="0.3">
<path d="M355.141 148.267C347.808 140.207 337.231 136.173 323.411 136.167C309.591 136.16 299.014 140.193 291.681 148.267C284.348 156.347 280.681 167.753 280.681 182.487V279.327C280.681 294.067 284.348 305.473 291.681 313.547C299.014 321.62 309.591 325.653 323.411 325.647C337.231 325.647 347.808 321.613 355.141 313.547C362.474 305.48 366.141 294.073 366.141 279.327V182.487C366.141 167.747 362.474 156.34 355.141 148.267ZM337.991 281.177C337.991 293.277 333.131 299.327 323.411 299.327C313.691 299.327 308.821 291.737 308.821 281.177V180.637C308.821 169.637 313.691 162.487 323.411 162.487C333.131 162.487 337.991 168.487 337.991 180.637V281.177Z" fill="black"/>
</g>
<path d="M278.871 313.547C271.538 305.473 267.871 294.067 267.871 279.327V182.487C267.871 167.747 271.538 156.34 278.871 148.267C286.204 140.193 296.778 136.16 310.591 136.167C324.411 136.167 334.988 140.2 342.321 148.267C349.654 156.333 353.321 167.74 353.321 182.487V279.327C353.321 294.067 349.654 305.473 342.321 313.547C334.988 321.62 324.411 325.653 310.591 325.647C296.784 325.647 286.211 321.613 278.871 313.547ZM325.181 281.167V180.637C325.181 168.537 320.318 162.487 310.591 162.487C300.864 162.487 296.004 168.537 296.011 180.637V281.167C296.011 293.28 300.871 299.333 310.591 299.327C320.311 299.32 325.174 293.267 325.181 281.167Z" fill="#00B5D8"/>
<path d="M428.991 289.597H375.261V263.277L426.431 138.797H457.141V263.277H470.441V289.597H457.141V323.017H428.991V289.597ZM428.991 263.277V191.437H428.481L400.841 263.277H428.991Z" fill="#00B5D8"/>
<g opacity="0.3">
<path d="M428.991 289.597H375.261V263.277L426.431 138.797H457.141V263.277H470.441V289.597H457.141V323.017H428.991V289.597ZM428.991 263.277V191.437H428.481L400.841 263.277H428.991Z" fill="black"/>
</g>
<path d="M416.181 289.597H362.441V263.277L413.621 138.797H444.321V263.277H457.631V289.597H444.321V323.017H416.181V289.597ZM416.181 263.277V191.427H415.661L388.031 263.277H416.181Z" fill="#00B5D8"/>
</svg>
